G04 #@! TF.FileFunction,Soldermask,Bot*
%FSLAX46Y46*%
G04 Gerber Fmt 4.6, Leading zero omitted, Abs format (unit mm)*
G04 Created by KiCad (PCBNEW 4.0.1-3.201512221401+6198~38~ubuntu15.10.1-stable) date Mon 22 Aug 2016 05:07:10 AM PDT*
%MOMM*%
G01*
G04 APERTURE LIST*
%ADD10C,0.100000*%
%ADD11C,2.398980*%
%ADD12R,2.127200X2.127200*%
%ADD13O,2.127200X2.127200*%
%ADD14O,2.899360X1.901140*%
%ADD15C,1.924000*%
%ADD16C,2.200000*%
%ADD17C,3.280000*%
%ADD18C,3.448000*%
%ADD19R,2.432000X2.432000*%
%ADD20O,2.432000X2.432000*%
%ADD21C,4.400000*%
%ADD22O,7.400000X4.900000*%
%ADD23O,1.901140X2.899360*%
%ADD24C,41.400000*%
%ADD25C,1.940000*%
%ADD26C,3.400000*%
%ADD27O,2.000000X2.000000*%
%ADD28R,2.432000X2.127200*%
%ADD29O,2.432000X2.127200*%
%ADD30C,4.210000*%
%ADD31R,1.924000X1.924000*%
%ADD32O,3.200000X2.200000*%
%ADD33R,3.900120X3.900120*%
G04 APERTURE END LIST*
D10*
D11*
X62150000Y-46265000D03*
X69770000Y-46265000D03*
D12*
X81017900Y-118459700D03*
D13*
X78477900Y-118459700D03*
X81017900Y-115919700D03*
X78477900Y-115919700D03*
X81017900Y-113379700D03*
X78477900Y-113379700D03*
X81017900Y-110839700D03*
X78477900Y-110839700D03*
X81017900Y-108299700D03*
X78477900Y-108299700D03*
X81017900Y-105759700D03*
X78477900Y-105759700D03*
X81017900Y-103219700D03*
X78477900Y-103219700D03*
X81017900Y-100679700D03*
X78477900Y-100679700D03*
X81017900Y-98139700D03*
X78477900Y-98139700D03*
X81017900Y-95599700D03*
X78477900Y-95599700D03*
X81017900Y-93059700D03*
X78477900Y-93059700D03*
X81017900Y-90519700D03*
X78477900Y-90519700D03*
X81017900Y-87979700D03*
X78477900Y-87979700D03*
D12*
X131612160Y-118838160D03*
D13*
X129072160Y-118838160D03*
X131612160Y-116298160D03*
X129072160Y-116298160D03*
X131612160Y-113758160D03*
X129072160Y-113758160D03*
X131612160Y-111218160D03*
X129072160Y-111218160D03*
X131612160Y-108678160D03*
X129072160Y-108678160D03*
X131612160Y-106138160D03*
X129072160Y-106138160D03*
X131612160Y-103598160D03*
X129072160Y-103598160D03*
X131612160Y-101058160D03*
X129072160Y-101058160D03*
X131612160Y-98518160D03*
X129072160Y-98518160D03*
X131612160Y-95978160D03*
X129072160Y-95978160D03*
X131612160Y-93438160D03*
X129072160Y-93438160D03*
X131612160Y-90898160D03*
X129072160Y-90898160D03*
X131612160Y-88358160D03*
X129072160Y-88358160D03*
D14*
X119855000Y-70275000D03*
X119855000Y-72775000D03*
X119855000Y-67775000D03*
X119855000Y-65275000D03*
D15*
X115200000Y-44705000D03*
X112000000Y-44705000D03*
X109800000Y-44705000D03*
X107600000Y-44705000D03*
X115200000Y-47905000D03*
X112000000Y-47905000D03*
X109800000Y-47905000D03*
X107600000Y-47905000D03*
D16*
X113005000Y-33385000D03*
D17*
X116435000Y-36815000D03*
X109575000Y-36815000D03*
X109575000Y-29955000D03*
X116435000Y-29955000D03*
D16*
X129450000Y-33330000D03*
D17*
X132880000Y-36760000D03*
X126020000Y-36760000D03*
X126020000Y-29900000D03*
X132880000Y-29900000D03*
D15*
X122550000Y-48005000D03*
X125750000Y-48005000D03*
X127950000Y-48005000D03*
X130150000Y-48005000D03*
X122550000Y-44805000D03*
X125750000Y-44805000D03*
X127950000Y-44805000D03*
X130150000Y-44805000D03*
D18*
X158626227Y-57543329D03*
X161166227Y-55003329D03*
X161166227Y-60083329D03*
X156086227Y-60083329D03*
X156086227Y-55003329D03*
D16*
X157861600Y-38929680D03*
D17*
X154431600Y-42359680D03*
X154431600Y-35499680D03*
X161291600Y-35499680D03*
X161291600Y-42359680D03*
D16*
X96375000Y-33365000D03*
D17*
X99805000Y-36795000D03*
X92945000Y-36795000D03*
X92945000Y-29935000D03*
X99805000Y-29935000D03*
D18*
X81685000Y-33625000D03*
X79145000Y-31085000D03*
X84225000Y-31085000D03*
X84225000Y-36165000D03*
X79145000Y-36165000D03*
D19*
X86245000Y-44330000D03*
D20*
X83705000Y-44330000D03*
D16*
X67410000Y-34230000D03*
D17*
X70840000Y-37660000D03*
X63980000Y-37660000D03*
X63980000Y-30800000D03*
X70840000Y-30800000D03*
D11*
X69720000Y-54210000D03*
X62100000Y-54210000D03*
X69575000Y-49895000D03*
X61955000Y-49895000D03*
D21*
X60880000Y-97450000D03*
X60880000Y-122850000D03*
D14*
X64925000Y-111520000D03*
X64925000Y-114020000D03*
X64925000Y-109020000D03*
X64925000Y-106520000D03*
D22*
X54140000Y-152325000D03*
X62040000Y-152325000D03*
D21*
X67675000Y-68590000D03*
X93075000Y-68590000D03*
D22*
X53880000Y-142835000D03*
X61780000Y-142835000D03*
D15*
X71415000Y-66755000D03*
X71415000Y-123455000D03*
D23*
X79240000Y-72705000D03*
X76740000Y-72705000D03*
X81740000Y-72705000D03*
X84240000Y-72705000D03*
D24*
X105250000Y-111805000D03*
D25*
X119900000Y-133105000D03*
X121900000Y-133105000D03*
X117400000Y-133105000D03*
X124400000Y-133105000D03*
D26*
X114330000Y-135815000D03*
X127470000Y-135815000D03*
D27*
X140700000Y-126800000D03*
X140700000Y-129340000D03*
X140700000Y-131880000D03*
X140700000Y-134420000D03*
X140700000Y-136960000D03*
X140700000Y-139500000D03*
X140700000Y-142040000D03*
X140700000Y-144580000D03*
X148320000Y-144580000D03*
X148320000Y-142040000D03*
X148320000Y-139500000D03*
X148320000Y-136960000D03*
X148320000Y-134420000D03*
X148320000Y-131880000D03*
X148320000Y-129340000D03*
X148320000Y-126800000D03*
D28*
X154100000Y-147680000D03*
D29*
X154100000Y-145140000D03*
X154100000Y-142600000D03*
X154100000Y-140060000D03*
X154100000Y-137520000D03*
X154100000Y-134980000D03*
X154100000Y-132440000D03*
X154100000Y-129900000D03*
X154100000Y-127360000D03*
X154100000Y-124820000D03*
X154100000Y-122280000D03*
X154100000Y-119740000D03*
X154100000Y-117200000D03*
X154100000Y-114660000D03*
X154100000Y-112120000D03*
X154100000Y-109580000D03*
X154100000Y-107040000D03*
X154100000Y-104500000D03*
X154100000Y-101960000D03*
X154100000Y-99420000D03*
X154100000Y-96880000D03*
X154100000Y-94340000D03*
X154100000Y-91800000D03*
X154100000Y-89260000D03*
X154100000Y-86720000D03*
X154100000Y-84180000D03*
X154100000Y-81640000D03*
X154100000Y-79100000D03*
X154100000Y-76560000D03*
D28*
X135050000Y-147680000D03*
D29*
X135050000Y-145140000D03*
X135050000Y-142600000D03*
X135050000Y-140060000D03*
X135050000Y-137520000D03*
X135050000Y-134980000D03*
X135050000Y-132440000D03*
X135050000Y-129900000D03*
X135050000Y-127360000D03*
X135050000Y-124820000D03*
X135050000Y-122280000D03*
X135050000Y-119740000D03*
X135050000Y-117200000D03*
X135050000Y-114660000D03*
X135050000Y-112120000D03*
X135050000Y-109580000D03*
X135050000Y-107040000D03*
X135050000Y-104500000D03*
X135050000Y-101960000D03*
X135050000Y-99420000D03*
X135050000Y-96880000D03*
X135050000Y-94340000D03*
X135050000Y-91800000D03*
X135050000Y-89260000D03*
X135050000Y-86720000D03*
X135050000Y-84180000D03*
X135050000Y-81640000D03*
X135050000Y-79100000D03*
X135050000Y-76560000D03*
D27*
X141095000Y-80185000D03*
X141095000Y-82725000D03*
X141095000Y-85265000D03*
X141095000Y-87805000D03*
X141095000Y-90345000D03*
X141095000Y-92885000D03*
X141095000Y-95425000D03*
X141095000Y-97965000D03*
X148715000Y-97965000D03*
X148715000Y-95425000D03*
X148715000Y-92885000D03*
X148715000Y-90345000D03*
X148715000Y-87805000D03*
X148715000Y-85265000D03*
X148715000Y-82725000D03*
X148715000Y-80185000D03*
D30*
X160835000Y-158855000D03*
X161089000Y-125327000D03*
D31*
X158549000Y-132439000D03*
D15*
X158549000Y-135233000D03*
X158549000Y-137900000D03*
X158549000Y-140694000D03*
X158549000Y-143488000D03*
X158549000Y-146282000D03*
X158549000Y-148949000D03*
X158549000Y-151743000D03*
X161089000Y-134013800D03*
X161089000Y-136553800D03*
X161089000Y-139347800D03*
X161089000Y-142091000D03*
X161089000Y-144834200D03*
X161089000Y-147628200D03*
X161089000Y-150371400D03*
D30*
X161065000Y-116250000D03*
X161065000Y-69260000D03*
D31*
X158525000Y-76245000D03*
D15*
X158525000Y-79039000D03*
X158525000Y-81706000D03*
X158525000Y-84500000D03*
X158525000Y-87294000D03*
X158525000Y-90088000D03*
X158525000Y-92755000D03*
X158525000Y-95549000D03*
X158525000Y-98343000D03*
X158525000Y-101137000D03*
X158525000Y-103804000D03*
X158525000Y-106598000D03*
X158525000Y-109392000D03*
X161065000Y-77819800D03*
X161065000Y-80359800D03*
X161065000Y-83153800D03*
X161065000Y-85897000D03*
X161065000Y-88640200D03*
X161065000Y-91434200D03*
X161065000Y-94177400D03*
X161065000Y-96920600D03*
X161065000Y-99765400D03*
X161065000Y-102457800D03*
X161065000Y-105201000D03*
X161065000Y-107995000D03*
D32*
X142235000Y-167200000D03*
X139335000Y-164800000D03*
X139335000Y-159300000D03*
X133225000Y-167175000D03*
X130325000Y-164775000D03*
X130325000Y-159275000D03*
X151245000Y-167045000D03*
X148345000Y-164645000D03*
X148345000Y-159145000D03*
X124470000Y-167420000D03*
X121570000Y-165020000D03*
X121570000Y-159520000D03*
X115720000Y-167335000D03*
X112820000Y-164935000D03*
X112820000Y-159435000D03*
D33*
X55910000Y-111645000D03*
X49910520Y-111645000D03*
X52910260Y-116344000D03*
D18*
X52250000Y-33835000D03*
X49710000Y-36375000D03*
X49710000Y-31295000D03*
X54790000Y-31295000D03*
X54790000Y-36375000D03*
D11*
X48780000Y-50940000D03*
X48780000Y-43320000D03*
X62390000Y-42375000D03*
X54770000Y-42375000D03*
X48340000Y-61780000D03*
X48340000Y-54160000D03*
X58685000Y-46345000D03*
X58685000Y-53965000D03*
X55910000Y-67360000D03*
X48290000Y-67360000D03*
D15*
X54215000Y-81045000D03*
X54215000Y-137745000D03*
M02*
