M48
INCH,TZ
T1C0.016
T2C0.031
T3C0.033
T4C0.036
T5C0.039
T6C0.039
T7C0.040
T8C0.047
T9C0.057
T10C0.075
T11C0.079
T12C0.091
T13C0.098
T14C0.102
T15C0.120
T16C1.575
%
G90
G05
T1
X19850Y-25071
X20085Y-21031
X20925Y-22069
X20980Y-24065
X21484Y-17602
X22104Y-24400
X22404Y-23531
X22945Y-52787
X25165Y-17496
X28766Y-40441
X28945Y-46291
X29138Y-25026
X29242Y-32604
X30022Y-51756
X30703Y-32661
X30803Y-20959
X31240Y-20157
X31526Y-47854
X32870Y-50543
X33264Y-31654
X36238Y-23390
X36244Y-19632
X37957Y-54051
X38228Y-17077
X38228Y-20053
X39862Y-17037
X39862Y-20014
X43528Y-53307
X43837Y-30260
X44094Y-59120
X44118Y-55815
X44222Y-30283
X44394Y-20417
X44543Y-54374
X45740Y-55780
X45921Y-59091
X47545Y-58299
X47768Y-55388
X48695Y-54402
X49018Y-55978
X49638Y-24163
X49831Y-51945
X49844Y-51120
X50268Y-26378
X50291Y-60303
X50461Y-48817
X50921Y-28994
X50947Y-54429
X51071Y-57467
X51713Y-50640
X51811Y-48961
X51870Y-60102
X52094Y-60744
X52864Y-26506
X53477Y-27736
X54112Y-58463
X54276Y-37674
X54502Y-28994
X54593Y-58173
X54638Y-40283
X54669Y-38167
X54756Y-41717
X54756Y-50449
X55152Y-26146
X55392Y-29179
X55793Y-19281
X55833Y-19022
X55953Y-40593
X56096Y-48659
X56435Y-37547
X56681Y-36567
X56772Y-19598
X56927Y-35748
X57106Y-19579
X57173Y-34732
X57419Y-33886
X57669Y-33646
X57807Y-59675
X57874Y-17856
X57949Y-33482
X58195Y-17730
X58270Y-59657
X58384Y-47896
X58537Y-29191
X58543Y-17896
X58961Y-52337
X59018Y-40593
X59047Y-53443
X59116Y-54344
X59152Y-34674
X59156Y-49575
X59177Y-43675
X59197Y-41996
X59209Y-55364
X59217Y-30053
X59222Y-33093
X59270Y-25124
X59398Y-36943
X59402Y-50262
X59474Y-32707
X59600Y-51163
X59644Y-36236
X59717Y-39175
X59717Y-58549
X59776Y-31766
X59785Y-52217
X61452Y-35674
X61530Y-37051
X61651Y-44734
X61750Y-53994
X61766Y-57657
X61795Y-34817
X63947Y-38652
X64020Y-36465
X64177Y-39813
X64447Y-42484
X64494Y-53157
X64610Y-41384
X64638Y-54846
X64748Y-57199
X64852Y-51703
X64878Y-40293
T2
X55394Y-49921
X55394Y-50921
X55394Y-51921
X55394Y-52921
X55394Y-53921
X55394Y-54921
X55394Y-55921
X55394Y-56921
X55549Y-31569
X55549Y-32569
X55549Y-33569
X55549Y-34569
X55549Y-35569
X55549Y-36569
X55549Y-37569
X55549Y-38569
X58394Y-49921
X58394Y-50921
X58394Y-51921
X58394Y-52921
X58394Y-53921
X58394Y-54921
X58394Y-55921
X58394Y-56921
X58549Y-31569
X58549Y-32569
X58549Y-33569
X58549Y-34569
X58549Y-35569
X58549Y-36569
X58549Y-37569
X58549Y-38569
T3
X42362Y-17600
X42362Y-18860
X43228Y-17600
X43228Y-18860
X44094Y-17600
X44094Y-18860
X45354Y-17600
X45354Y-18860
X48248Y-17640
X48248Y-18900
X49508Y-17640
X49508Y-18900
X50374Y-17640
X50374Y-18900
X51240Y-17640
X51240Y-18900
T4
X46220Y-52404
X47205Y-52404
X47992Y-52404
X48976Y-52404
T5
X21344Y-31907
X21344Y-54230
X28116Y-26281
X28116Y-48604
T6
X19012Y-26520
X19031Y-21323
X19031Y-24323
X19205Y-17055
X19205Y-20055
X21563Y-16683
X22012Y-26520
X23104Y-18246
X23104Y-21246
X24392Y-19644
X24449Y-21343
X24469Y-18215
X24563Y-16683
X25561Y-41937
X25561Y-42921
X25561Y-43906
X25561Y-44890
X27392Y-19644
X27449Y-21343
X27469Y-18215
X30213Y-28624
X31197Y-28624
X32181Y-28624
X33165Y-28624
X47187Y-25699
X47187Y-26683
X47187Y-27667
X47187Y-28652
T7
X30897Y-34638
X30897Y-35638
X30897Y-36638
X30897Y-37638
X30897Y-38638
X30897Y-39638
X30897Y-40638
X30897Y-41638
X30897Y-42638
X30897Y-43638
X30897Y-44638
X30897Y-45638
X30897Y-46638
X31897Y-34638
X31897Y-35638
X31897Y-36638
X31897Y-37638
X31897Y-38638
X31897Y-39638
X31897Y-40638
X31897Y-41638
X31897Y-42638
X31897Y-43638
X31897Y-44638
X31897Y-45638
X31897Y-46638
X32955Y-17453
X33955Y-17453
X50816Y-34787
X50816Y-35787
X50816Y-36787
X50816Y-37787
X50816Y-38787
X50816Y-39787
X50816Y-40787
X50816Y-41787
X50816Y-42787
X50816Y-43787
X50816Y-44787
X50816Y-45787
X50816Y-46787
X51816Y-34787
X51816Y-35787
X51816Y-36787
X51816Y-37787
X51816Y-38787
X51816Y-39787
X51816Y-40787
X51816Y-41787
X51816Y-42787
X51816Y-43787
X51816Y-44787
X51816Y-45787
X51816Y-46787
X53169Y-30142
X53169Y-31142
X53169Y-32142
X53169Y-33142
X53169Y-34142
X53169Y-35142
X53169Y-36142
X53169Y-37142
X53169Y-38142
X53169Y-39142
X53169Y-40142
X53169Y-41142
X53169Y-42142
X53169Y-43142
X53169Y-44142
X53169Y-45142
X53169Y-46142
X53169Y-47142
X53169Y-48142
X53169Y-49142
X53169Y-50142
X53169Y-51142
X53169Y-52142
X53169Y-53142
X53169Y-54142
X53169Y-55142
X53169Y-56142
X53169Y-57142
X53169Y-58142
X60669Y-30142
X60669Y-31142
X60669Y-32142
X60669Y-33142
X60669Y-34142
X60669Y-35142
X60669Y-36142
X60669Y-37142
X60669Y-38142
X60669Y-39142
X60669Y-40142
X60669Y-41142
X60669Y-42142
X60669Y-43142
X60669Y-44142
X60669Y-45142
X60669Y-46142
X60669Y-47142
X60669Y-48142
X60669Y-49142
X60669Y-50142
X60669Y-51142
X60669Y-52142
X60669Y-53142
X60669Y-54142
X60669Y-55142
X60669Y-56142
X60669Y-57142
X60669Y-58142
X62411Y-30018
X62411Y-31118
X62411Y-32168
X62411Y-33268
X62411Y-34368
X62411Y-35468
X62411Y-36518
X62411Y-37618
X62411Y-38718
X62411Y-39818
X62411Y-40868
X62411Y-41968
X62411Y-43068
X62421Y-52141
X62421Y-53241
X62421Y-54291
X62421Y-55391
X62421Y-56491
X62421Y-57591
X62421Y-58641
X62421Y-59741
X63411Y-30638
X63411Y-31638
X63411Y-32738
X63411Y-33818
X63411Y-34898
X63411Y-35998
X63411Y-37078
X63411Y-38158
X63411Y-39278
X63411Y-40338
X63411Y-41418
X63411Y-42518
X63421Y-52761
X63421Y-53761
X63421Y-54861
X63421Y-55941
X63421Y-57021
X63421Y-58121
X63421Y-59201
T9
X26539Y-13476
X37943Y-13136
X44490Y-13144
X50965Y-13122
X62150Y-15327
T10
X19571Y-12321
X19571Y-14321
X20571Y-13321
X21571Y-12321
X21571Y-14321
X31159Y-12238
X31159Y-14238
X32159Y-13238
X33159Y-12238
X33159Y-14238
X61451Y-21655
X61451Y-23655
X62451Y-22655
X63451Y-21655
X63451Y-23655
T12
X45012Y-53470
X50185Y-53470
T13
X23969Y-38366
X23969Y-48366
X26644Y-27004
X36644Y-27004
T14
X25189Y-12126
X25189Y-14827
X27890Y-12126
X27890Y-14827
X36593Y-11785
X36593Y-14486
X39293Y-11785
X39293Y-14486
X43140Y-11793
X43140Y-14494
X45841Y-11793
X45841Y-14494
X49614Y-11772
X49614Y-14472
X52315Y-11772
X52315Y-14472
X60800Y-13976
X60800Y-16677
X63501Y-13976
X63501Y-16677
T15
X63321Y-62541
X63411Y-27268
X63411Y-45768
X63421Y-49341
T16
X41437Y-44018
T6
X19650Y-43561G85X19650Y-44348
G05
X20437Y-45805G85X21224Y-45805
G05
X22012Y-43561G85X22012Y-44348
G05
T8
X44220Y-62770G85X44614Y-62770
G05
X44220Y-64935G85X44614Y-64935
G05
X45362Y-65880G85X45756Y-65880
G05
X47665Y-62803G85X48059Y-62803
G05
X47665Y-64969G85X48059Y-64969
G05
X48807Y-65913G85X49201Y-65913
G05
X51112Y-62707G85X51506Y-62707
G05
X51112Y-64872G85X51506Y-64872
G05
X52254Y-65817G85X52648Y-65817
G05
X54659Y-62717G85X55053Y-62717
G05
X54659Y-64882G85X55053Y-64882
G05
X55801Y-65827G85X56195Y-65827
G05
X58207Y-62656G85X58600Y-62656
G05
X58207Y-64821G85X58600Y-64821
G05
X59348Y-65766G85X59742Y-65766
G05
T11
X21803Y-56234G85X20622Y-56234
G05
X21906Y-59970G85X20724Y-59970
G05
X24913Y-56234G85X23732Y-56234
G05
X25016Y-59970G85X23835Y-59970
G05
T0
M30
