G04 #@! TF.FileFunction,Soldermask,Top*
%FSLAX46Y46*%
G04 Gerber Fmt 4.6, Leading zero omitted, Abs format (unit mm)*
G04 Created by KiCad (PCBNEW 4.0.1-3.201512221401+6198~38~ubuntu15.10.1-stable) date Mon 22 Aug 2016 05:07:10 AM PDT*
%MOMM*%
G01*
G04 APERTURE LIST*
%ADD10C,0.100000*%
%ADD11C,2.398980*%
%ADD12R,1.598880X2.998420*%
%ADD13R,1.598880X3.000960*%
%ADD14R,2.127200X2.127200*%
%ADD15O,2.127200X2.127200*%
%ADD16R,2.178000X3.194000*%
%ADD17O,2.899360X1.901140*%
%ADD18R,2.200860X3.100020*%
%ADD19R,2.400000X2.000000*%
%ADD20R,2.100000X2.400000*%
%ADD21R,2.000000X2.400000*%
%ADD22C,1.924000*%
%ADD23R,2.400000X2.900000*%
%ADD24R,2.998420X1.598880*%
%ADD25R,3.000960X1.598880*%
%ADD26C,2.200000*%
%ADD27C,3.280000*%
%ADD28R,3.199080X1.598880*%
%ADD29R,3.199080X1.400760*%
%ADD30C,3.448000*%
%ADD31R,2.900000X2.400000*%
%ADD32R,2.432000X2.432000*%
%ADD33O,2.432000X2.432000*%
%ADD34R,2.940000X2.050000*%
%ADD35C,4.400000*%
%ADD36O,7.400000X4.900000*%
%ADD37O,1.901140X2.899360*%
%ADD38C,41.400000*%
%ADD39C,1.940000*%
%ADD40C,3.400000*%
%ADD41O,2.000000X2.000000*%
%ADD42R,3.194000X2.178000*%
%ADD43R,2.432000X2.127200*%
%ADD44O,2.432000X2.127200*%
%ADD45C,4.210000*%
%ADD46R,1.924000X1.924000*%
%ADD47O,3.200000X2.200000*%
%ADD48R,3.900120X3.900120*%
%ADD49R,3.051760X2.429460*%
%ADD50R,1.160000X2.050000*%
%ADD51R,0.908000X1.543000*%
G04 APERTURE END LIST*
D10*
D11*
X62150000Y-46265000D03*
X69770000Y-46265000D03*
D12*
X74070000Y-56872520D03*
D13*
X74070000Y-61475000D03*
D14*
X81017900Y-118459700D03*
D15*
X78477900Y-118459700D03*
X81017900Y-115919700D03*
X78477900Y-115919700D03*
X81017900Y-113379700D03*
X78477900Y-113379700D03*
X81017900Y-110839700D03*
X78477900Y-110839700D03*
X81017900Y-108299700D03*
X78477900Y-108299700D03*
X81017900Y-105759700D03*
X78477900Y-105759700D03*
X81017900Y-103219700D03*
X78477900Y-103219700D03*
X81017900Y-100679700D03*
X78477900Y-100679700D03*
X81017900Y-98139700D03*
X78477900Y-98139700D03*
X81017900Y-95599700D03*
X78477900Y-95599700D03*
X81017900Y-93059700D03*
X78477900Y-93059700D03*
X81017900Y-90519700D03*
X78477900Y-90519700D03*
X81017900Y-87979700D03*
X78477900Y-87979700D03*
D14*
X131612160Y-118838160D03*
D15*
X129072160Y-118838160D03*
X131612160Y-116298160D03*
X129072160Y-116298160D03*
X131612160Y-113758160D03*
X129072160Y-113758160D03*
X131612160Y-111218160D03*
X129072160Y-111218160D03*
X131612160Y-108678160D03*
X129072160Y-108678160D03*
X131612160Y-106138160D03*
X129072160Y-106138160D03*
X131612160Y-103598160D03*
X129072160Y-103598160D03*
X131612160Y-101058160D03*
X129072160Y-101058160D03*
X131612160Y-98518160D03*
X129072160Y-98518160D03*
X131612160Y-95978160D03*
X129072160Y-95978160D03*
X131612160Y-93438160D03*
X129072160Y-93438160D03*
X131612160Y-90898160D03*
X129072160Y-90898160D03*
X131612160Y-88358160D03*
X129072160Y-88358160D03*
D16*
X120205000Y-61400000D03*
X123761000Y-61400000D03*
D17*
X119855000Y-70275000D03*
X119855000Y-72775000D03*
X119855000Y-67775000D03*
X119855000Y-65275000D03*
D18*
X129129400Y-70450000D03*
X133930000Y-70450000D03*
D19*
X123880000Y-65300000D03*
X127880000Y-65300000D03*
D20*
X141855000Y-60590000D03*
X141855000Y-56590000D03*
D19*
X129930000Y-60400000D03*
X133930000Y-60400000D03*
D16*
X130599000Y-64775000D03*
X134155000Y-64775000D03*
D21*
X138535000Y-60930000D03*
X138535000Y-64930000D03*
D22*
X115200000Y-44705000D03*
X112000000Y-44705000D03*
X109800000Y-44705000D03*
X107600000Y-44705000D03*
X115200000Y-47905000D03*
X112000000Y-47905000D03*
X109800000Y-47905000D03*
X107600000Y-47905000D03*
D23*
X142740000Y-74115000D03*
X146740000Y-74115000D03*
D24*
X139722520Y-53455000D03*
D25*
X144325000Y-53455000D03*
D26*
X113005000Y-33385000D03*
D27*
X116435000Y-36815000D03*
X109575000Y-36815000D03*
X109575000Y-29955000D03*
X116435000Y-29955000D03*
D28*
X147925000Y-48424580D03*
D29*
X147925000Y-46705000D03*
X144323280Y-46705000D03*
D10*
G36*
X145922820Y-49305300D02*
X142723740Y-49305300D01*
X142723740Y-47904540D01*
X145922820Y-47904540D01*
X145922820Y-49305300D01*
X145922820Y-49305300D01*
G37*
D26*
X129450000Y-33330000D03*
D27*
X132880000Y-36760000D03*
X126020000Y-36760000D03*
X126020000Y-29900000D03*
X132880000Y-29900000D03*
D22*
X122550000Y-48005000D03*
X125750000Y-48005000D03*
X127950000Y-48005000D03*
X130150000Y-48005000D03*
X122550000Y-44805000D03*
X125750000Y-44805000D03*
X127950000Y-44805000D03*
X130150000Y-44805000D03*
D21*
X147925000Y-53455000D03*
X147925000Y-57455000D03*
D30*
X158626227Y-57543329D03*
X161166227Y-55003329D03*
X161166227Y-60083329D03*
X156086227Y-60083329D03*
X156086227Y-55003329D03*
D20*
X150650000Y-57580000D03*
X150650000Y-61580000D03*
D26*
X157861600Y-38929680D03*
D27*
X154431600Y-42359680D03*
X154431600Y-35499680D03*
X161291600Y-35499680D03*
X161291600Y-42359680D03*
D21*
X144275000Y-38830000D03*
X144275000Y-42830000D03*
D31*
X101250000Y-45055000D03*
X101250000Y-49055000D03*
D24*
X131635000Y-73645000D03*
D25*
X136237480Y-73645000D03*
D12*
X92060000Y-52297520D03*
D13*
X92060000Y-56900000D03*
D26*
X96375000Y-33365000D03*
D27*
X99805000Y-36795000D03*
X92945000Y-36795000D03*
X92945000Y-29935000D03*
X99805000Y-29935000D03*
D21*
X97100000Y-45155000D03*
X97100000Y-49155000D03*
D30*
X81685000Y-33625000D03*
X79145000Y-31085000D03*
X84225000Y-31085000D03*
X84225000Y-36165000D03*
X79145000Y-36165000D03*
D32*
X86245000Y-44330000D03*
D33*
X83705000Y-44330000D03*
D26*
X67410000Y-34230000D03*
D27*
X70840000Y-37660000D03*
X63980000Y-37660000D03*
X63980000Y-30800000D03*
X70840000Y-30800000D03*
D19*
X65840000Y-42455000D03*
X69840000Y-42455000D03*
D16*
X72795000Y-53235000D03*
X76351000Y-53235000D03*
D19*
X56075000Y-63680000D03*
X52075000Y-63680000D03*
D34*
X74205000Y-44560000D03*
X79285000Y-44560000D03*
X74205000Y-47100000D03*
X74205000Y-49640000D03*
X79285000Y-49640000D03*
X79285000Y-47100000D03*
D11*
X69720000Y-54210000D03*
X62100000Y-54210000D03*
X69575000Y-49895000D03*
X61955000Y-49895000D03*
D19*
X69545000Y-115990000D03*
X73545000Y-115990000D03*
D35*
X60880000Y-97450000D03*
X60880000Y-122850000D03*
D16*
X69510000Y-104915000D03*
X73066000Y-104915000D03*
D17*
X64925000Y-111520000D03*
X64925000Y-114020000D03*
X64925000Y-109020000D03*
X64925000Y-106520000D03*
D18*
X81684400Y-80400000D03*
X86485000Y-80400000D03*
D36*
X54140000Y-152325000D03*
X62040000Y-152325000D03*
D16*
X81759000Y-84150000D03*
X85315000Y-84150000D03*
X77870000Y-80300000D03*
X74314000Y-80300000D03*
D35*
X67675000Y-68590000D03*
X93075000Y-68590000D03*
D36*
X53880000Y-142835000D03*
X61780000Y-142835000D03*
D22*
X71415000Y-66755000D03*
X71415000Y-123455000D03*
D16*
X131766000Y-122065000D03*
X128210000Y-122065000D03*
D21*
X69405000Y-112780000D03*
X69405000Y-108780000D03*
D37*
X79240000Y-72705000D03*
X76740000Y-72705000D03*
X81740000Y-72705000D03*
X84240000Y-72705000D03*
D20*
X116585000Y-148345000D03*
X116585000Y-144345000D03*
X111990000Y-148585000D03*
X111990000Y-144585000D03*
D38*
X105250000Y-111805000D03*
D39*
X119900000Y-133105000D03*
X121900000Y-133105000D03*
X117400000Y-133105000D03*
X124400000Y-133105000D03*
D40*
X114330000Y-135815000D03*
X127470000Y-135815000D03*
D19*
X77670000Y-76655000D03*
X73670000Y-76655000D03*
X81925000Y-76655000D03*
X85925000Y-76655000D03*
D21*
X130490000Y-144050000D03*
X130490000Y-140050000D03*
D23*
X123865000Y-150210000D03*
X127865000Y-150210000D03*
D41*
X140700000Y-126800000D03*
X140700000Y-129340000D03*
X140700000Y-131880000D03*
X140700000Y-134420000D03*
X140700000Y-136960000D03*
X140700000Y-139500000D03*
X140700000Y-142040000D03*
X140700000Y-144580000D03*
X148320000Y-144580000D03*
X148320000Y-142040000D03*
X148320000Y-139500000D03*
X148320000Y-136960000D03*
X148320000Y-134420000D03*
X148320000Y-131880000D03*
X148320000Y-129340000D03*
X148320000Y-126800000D03*
D20*
X126270000Y-142225000D03*
X126270000Y-146225000D03*
D42*
X73265000Y-112155000D03*
X73265000Y-108599000D03*
D23*
X154230000Y-151510000D03*
X150230000Y-151510000D03*
X146520000Y-121670000D03*
X142520000Y-121670000D03*
X141010000Y-151640000D03*
X145010000Y-151640000D03*
X148220000Y-103090000D03*
X144220000Y-103090000D03*
D43*
X154100000Y-147680000D03*
D44*
X154100000Y-145140000D03*
X154100000Y-142600000D03*
X154100000Y-140060000D03*
X154100000Y-137520000D03*
X154100000Y-134980000D03*
X154100000Y-132440000D03*
X154100000Y-129900000D03*
X154100000Y-127360000D03*
X154100000Y-124820000D03*
X154100000Y-122280000D03*
X154100000Y-119740000D03*
X154100000Y-117200000D03*
X154100000Y-114660000D03*
X154100000Y-112120000D03*
X154100000Y-109580000D03*
X154100000Y-107040000D03*
X154100000Y-104500000D03*
X154100000Y-101960000D03*
X154100000Y-99420000D03*
X154100000Y-96880000D03*
X154100000Y-94340000D03*
X154100000Y-91800000D03*
X154100000Y-89260000D03*
X154100000Y-86720000D03*
X154100000Y-84180000D03*
X154100000Y-81640000D03*
X154100000Y-79100000D03*
X154100000Y-76560000D03*
D43*
X135050000Y-147680000D03*
D44*
X135050000Y-145140000D03*
X135050000Y-142600000D03*
X135050000Y-140060000D03*
X135050000Y-137520000D03*
X135050000Y-134980000D03*
X135050000Y-132440000D03*
X135050000Y-129900000D03*
X135050000Y-127360000D03*
X135050000Y-124820000D03*
X135050000Y-122280000D03*
X135050000Y-119740000D03*
X135050000Y-117200000D03*
X135050000Y-114660000D03*
X135050000Y-112120000D03*
X135050000Y-109580000D03*
X135050000Y-107040000D03*
X135050000Y-104500000D03*
X135050000Y-101960000D03*
X135050000Y-99420000D03*
X135050000Y-96880000D03*
X135050000Y-94340000D03*
X135050000Y-91800000D03*
X135050000Y-89260000D03*
X135050000Y-86720000D03*
X135050000Y-84180000D03*
X135050000Y-81640000D03*
X135050000Y-79100000D03*
X135050000Y-76560000D03*
D41*
X141095000Y-80185000D03*
X141095000Y-82725000D03*
X141095000Y-85265000D03*
X141095000Y-87805000D03*
X141095000Y-90345000D03*
X141095000Y-92885000D03*
X141095000Y-95425000D03*
X141095000Y-97965000D03*
X148715000Y-97965000D03*
X148715000Y-95425000D03*
X148715000Y-92885000D03*
X148715000Y-90345000D03*
X148715000Y-87805000D03*
X148715000Y-85265000D03*
X148715000Y-82725000D03*
X148715000Y-80185000D03*
D31*
X120955000Y-146310000D03*
X120955000Y-142310000D03*
D24*
X132442520Y-151055000D03*
D25*
X137045000Y-151055000D03*
D45*
X160835000Y-158855000D03*
X161089000Y-125327000D03*
D46*
X158549000Y-132439000D03*
D22*
X158549000Y-135233000D03*
X158549000Y-137900000D03*
X158549000Y-140694000D03*
X158549000Y-143488000D03*
X158549000Y-146282000D03*
X158549000Y-148949000D03*
X158549000Y-151743000D03*
X161089000Y-134013800D03*
X161089000Y-136553800D03*
X161089000Y-139347800D03*
X161089000Y-142091000D03*
X161089000Y-144834200D03*
X161089000Y-147628200D03*
X161089000Y-150371400D03*
D45*
X161065000Y-116250000D03*
X161065000Y-69260000D03*
D46*
X158525000Y-76245000D03*
D22*
X158525000Y-79039000D03*
X158525000Y-81706000D03*
X158525000Y-84500000D03*
X158525000Y-87294000D03*
X158525000Y-90088000D03*
X158525000Y-92755000D03*
X158525000Y-95549000D03*
X158525000Y-98343000D03*
X158525000Y-101137000D03*
X158525000Y-103804000D03*
X158525000Y-106598000D03*
X158525000Y-109392000D03*
X161065000Y-77819800D03*
X161065000Y-80359800D03*
X161065000Y-83153800D03*
X161065000Y-85897000D03*
X161065000Y-88640200D03*
X161065000Y-91434200D03*
X161065000Y-94177400D03*
X161065000Y-96920600D03*
X161065000Y-99765400D03*
X161065000Y-102457800D03*
X161065000Y-105201000D03*
X161065000Y-107995000D03*
D47*
X142235000Y-167200000D03*
X139335000Y-164800000D03*
X139335000Y-159300000D03*
X133225000Y-167175000D03*
X130325000Y-164775000D03*
X130325000Y-159275000D03*
X151245000Y-167045000D03*
X148345000Y-164645000D03*
X148345000Y-159145000D03*
X124470000Y-167420000D03*
X121570000Y-165020000D03*
X121570000Y-159520000D03*
X115720000Y-167335000D03*
X112820000Y-164935000D03*
X112820000Y-159435000D03*
D16*
X63781000Y-134105000D03*
X60225000Y-134105000D03*
D48*
X55910000Y-111645000D03*
X49910520Y-111645000D03*
X52910260Y-116344000D03*
D49*
X64030680Y-138295000D03*
X59860000Y-138295000D03*
D30*
X52250000Y-33835000D03*
X49710000Y-36375000D03*
X49710000Y-31295000D03*
X54790000Y-31295000D03*
X54790000Y-36375000D03*
D11*
X48780000Y-50940000D03*
X48780000Y-43320000D03*
X62390000Y-42375000D03*
X54770000Y-42375000D03*
X48340000Y-61780000D03*
X48340000Y-54160000D03*
X58685000Y-46345000D03*
X58685000Y-53965000D03*
X55910000Y-67360000D03*
X48290000Y-67360000D03*
D22*
X54215000Y-81045000D03*
X54215000Y-137745000D03*
D50*
X51880000Y-49685000D03*
X54420000Y-49685000D03*
X51880000Y-46510000D03*
X53150000Y-46510000D03*
X54420000Y-46510000D03*
D51*
X55780000Y-59770000D03*
X54510000Y-59770000D03*
X53240000Y-59770000D03*
X51970000Y-59770000D03*
X51970000Y-53420000D03*
X53240000Y-53420000D03*
X54510000Y-53420000D03*
X55780000Y-53420000D03*
D18*
X81075000Y-128915000D03*
X76274400Y-128915000D03*
M02*
