G04 #@! TF.FileFunction,Paste,Top*
%FSLAX46Y46*%
G04 Gerber Fmt 4.6, Leading zero omitted, Abs format (unit mm)*
G04 Created by KiCad (PCBNEW 4.0.1-3.201512221401+6198~38~ubuntu15.10.1-stable) date Mon 22 Aug 2016 05:07:10 AM PDT*
%MOMM*%
G01*
G04 APERTURE LIST*
%ADD10C,0.100000*%
%ADD11R,1.198880X2.598420*%
%ADD12R,1.198880X2.600960*%
%ADD13R,1.778000X2.794000*%
%ADD14R,1.800860X2.700020*%
%ADD15R,2.000000X1.600000*%
%ADD16R,1.700000X2.000000*%
%ADD17R,1.600000X2.000000*%
%ADD18R,2.000000X2.500000*%
%ADD19R,2.598420X1.198880*%
%ADD20R,2.600960X1.198880*%
%ADD21R,2.799080X1.198880*%
%ADD22R,2.799080X1.000760*%
%ADD23R,2.500000X2.000000*%
%ADD24R,2.540000X1.650000*%
%ADD25R,2.794000X1.778000*%
%ADD26R,2.651760X2.029460*%
%ADD27R,0.760000X1.650000*%
%ADD28R,0.508000X1.143000*%
G04 APERTURE END LIST*
D10*
D11*
X74070000Y-56872520D03*
D12*
X74070000Y-61475000D03*
D13*
X120205000Y-61400000D03*
X123761000Y-61400000D03*
D14*
X129129400Y-70450000D03*
X133930000Y-70450000D03*
D15*
X123880000Y-65300000D03*
X127880000Y-65300000D03*
D16*
X141855000Y-60590000D03*
X141855000Y-56590000D03*
D15*
X129930000Y-60400000D03*
X133930000Y-60400000D03*
D13*
X130599000Y-64775000D03*
X134155000Y-64775000D03*
D17*
X138535000Y-60930000D03*
X138535000Y-64930000D03*
D18*
X142740000Y-74115000D03*
X146740000Y-74115000D03*
D19*
X139722520Y-53455000D03*
D20*
X144325000Y-53455000D03*
D21*
X147925000Y-48424580D03*
D22*
X147925000Y-46705000D03*
X144323280Y-46705000D03*
D10*
G36*
X145722820Y-49105300D02*
X142923740Y-49105300D01*
X142923740Y-48104540D01*
X145722820Y-48104540D01*
X145722820Y-49105300D01*
X145722820Y-49105300D01*
G37*
D17*
X147925000Y-53455000D03*
X147925000Y-57455000D03*
D16*
X150650000Y-57580000D03*
X150650000Y-61580000D03*
D17*
X144275000Y-38830000D03*
X144275000Y-42830000D03*
D23*
X101250000Y-45055000D03*
X101250000Y-49055000D03*
D19*
X131635000Y-73645000D03*
D20*
X136237480Y-73645000D03*
D11*
X92060000Y-52297520D03*
D12*
X92060000Y-56900000D03*
D17*
X97100000Y-45155000D03*
X97100000Y-49155000D03*
D15*
X65840000Y-42455000D03*
X69840000Y-42455000D03*
D13*
X72795000Y-53235000D03*
X76351000Y-53235000D03*
D15*
X56075000Y-63680000D03*
X52075000Y-63680000D03*
D24*
X74205000Y-44560000D03*
X79285000Y-44560000D03*
X74205000Y-47100000D03*
X74205000Y-49640000D03*
X79285000Y-49640000D03*
X79285000Y-47100000D03*
D15*
X69545000Y-115990000D03*
X73545000Y-115990000D03*
D13*
X69510000Y-104915000D03*
X73066000Y-104915000D03*
D14*
X81684400Y-80400000D03*
X86485000Y-80400000D03*
D13*
X81759000Y-84150000D03*
X85315000Y-84150000D03*
X77870000Y-80300000D03*
X74314000Y-80300000D03*
X131766000Y-122065000D03*
X128210000Y-122065000D03*
D17*
X69405000Y-112780000D03*
X69405000Y-108780000D03*
D16*
X116585000Y-148345000D03*
X116585000Y-144345000D03*
X111990000Y-148585000D03*
X111990000Y-144585000D03*
D15*
X77670000Y-76655000D03*
X73670000Y-76655000D03*
X81925000Y-76655000D03*
X85925000Y-76655000D03*
D17*
X130490000Y-144050000D03*
X130490000Y-140050000D03*
D18*
X123865000Y-150210000D03*
X127865000Y-150210000D03*
D16*
X126270000Y-142225000D03*
X126270000Y-146225000D03*
D25*
X73265000Y-112155000D03*
X73265000Y-108599000D03*
D18*
X154230000Y-151510000D03*
X150230000Y-151510000D03*
X146520000Y-121670000D03*
X142520000Y-121670000D03*
X141010000Y-151640000D03*
X145010000Y-151640000D03*
X148220000Y-103090000D03*
X144220000Y-103090000D03*
D23*
X120955000Y-146310000D03*
X120955000Y-142310000D03*
D19*
X132442520Y-151055000D03*
D20*
X137045000Y-151055000D03*
D13*
X63781000Y-134105000D03*
X60225000Y-134105000D03*
D26*
X64030680Y-138295000D03*
X59860000Y-138295000D03*
D27*
X51880000Y-49685000D03*
X54420000Y-49685000D03*
X51880000Y-46510000D03*
X53150000Y-46510000D03*
X54420000Y-46510000D03*
D28*
X55780000Y-59770000D03*
X54510000Y-59770000D03*
X53240000Y-59770000D03*
X51970000Y-59770000D03*
X51970000Y-53420000D03*
X53240000Y-53420000D03*
X54510000Y-53420000D03*
X55780000Y-53420000D03*
D14*
X81075000Y-128915000D03*
X76274400Y-128915000D03*
M02*
