M48
INCH,TZ
T1C0.016
T2C0.031
T3C0.033
T4C0.036
T5C0.039
T6C0.039
T7C0.040
T8C0.057
T9C0.059
T10C0.063
T11C0.075
T12C0.079
T13C0.091
T14C0.098
T15C0.102
T16C0.120
T17C0.127
T18C1.575
%
G90
G05
T1
X20478Y-20530
X20512Y-25793
X20949Y-20289
X21462Y-21640
X21738Y-18311
X22238Y-24319
X22336Y-23531
X22963Y-52797
X26884Y-54008
X26884Y-55510
X27634Y-54758
X27642Y-22301
X28409Y-21967
X28626Y-25728
X28854Y-44902
X28906Y-29447
X29161Y-25516
X29549Y-32535
X29596Y-42756
X29663Y-45665
X29782Y-25295
X30169Y-34484
X30388Y-50917
X30420Y-32677
X30628Y-32970
X30736Y-20900
X30793Y-32576
X31498Y-42059
X31687Y-30561
X31963Y-50947
X32047Y-19256
X32380Y-42136
X32663Y-35872
X32746Y-32665
X32884Y-41726
X32909Y-35193
X32929Y-31654
X33047Y-48018
X33159Y-41167
X33167Y-40693
X33343Y-34624
X33469Y-39541
X33678Y-34637
X34197Y-32677
X34230Y-29545
X34587Y-31654
X34878Y-52632
X35331Y-52585
X35846Y-52541
X35955Y-23366
X36278Y-52457
X36604Y-23287
X36620Y-52404
X36927Y-20413
X36933Y-52344
X38228Y-19941
X38819Y-17778
X39789Y-17114
X39862Y-19982
X43543Y-58557
X44215Y-53213
X44333Y-55457
X44341Y-58579
X45163Y-33860
X45736Y-53864
X45736Y-55661
X46193Y-58736
X47002Y-19427
X47429Y-55634
X47451Y-58661
X48902Y-53411
X49000Y-35321
X49709Y-40593
X49713Y-58238
X49900Y-44012
X49988Y-34732
X50169Y-46110
X50346Y-26339
X50382Y-29642
X50461Y-49106
X50722Y-56244
X50937Y-59142
X51510Y-59470
X51876Y-51502
X52203Y-24161
X52689Y-35217
X52791Y-44850
X52817Y-26530
X52848Y-43157
X52906Y-29642
X52913Y-36404
X53031Y-38465
X53148Y-50925
X53390Y-27587
X53805Y-29988
X54100Y-34561
X54152Y-47600
X54220Y-37927
X54583Y-36976
X54583Y-46457
X54695Y-36004
X55041Y-45238
X55063Y-35096
X55159Y-26002
X55309Y-33963
X55535Y-59470
X55557Y-32935
X55752Y-32004
X55766Y-52758
X55862Y-55077
X55929Y-12053
X56256Y-52894
X56443Y-44652
X56498Y-56502
X56553Y-28285
X56595Y-19521
X56848Y-29988
X56880Y-19624
X57171Y-19585
X57663Y-40207
X58179Y-17996
X58258Y-61575
X58478Y-42443
X58565Y-18073
X58705Y-30821
X58961Y-59207
X58965Y-29715
X59049Y-18305
X59258Y-30035
X59494Y-12089
X59846Y-28709
X61148Y-31557
X61224Y-32665
X61224Y-34990
X61402Y-38494
X61441Y-49742
X61510Y-52967
X61671Y-33246
X61687Y-52171
X61902Y-39734
X62496Y-49449
X63941Y-37878
X64262Y-39177
X64327Y-51382
X64453Y-41909
X64469Y-53299
X64632Y-40766
X64781Y-50587
X64787Y-55980
X64846Y-39686
X65075Y-38551
X65093Y-53793
T2
X53443Y-41652
X53443Y-42652
X53443Y-43652
X53443Y-44652
X53443Y-45652
X53443Y-46652
X53443Y-47652
X53443Y-48652
X53474Y-32004
X53474Y-33004
X53474Y-34004
X53474Y-35004
X53474Y-36004
X53474Y-37004
X53474Y-38004
X53474Y-39004
X56443Y-41652
X56443Y-42652
X56443Y-43652
X56443Y-44652
X56443Y-45652
X56443Y-46652
X56443Y-47652
X56443Y-48652
X56474Y-32004
X56474Y-33004
X56474Y-34004
X56474Y-35004
X56474Y-36004
X56474Y-37004
X56474Y-38004
X56474Y-39004
T3
X42362Y-17600
X42362Y-18860
X43228Y-17600
X43228Y-18860
X44094Y-17600
X44094Y-18860
X45354Y-17600
X45354Y-18860
X48248Y-17640
X48248Y-18900
X49508Y-17640
X49508Y-18900
X50374Y-17640
X50374Y-18900
X51240Y-17640
X51240Y-18900
T4
X29695Y-53730
X30679Y-53730
X31467Y-53730
X32451Y-53730
T5
X20815Y-30518
X20815Y-52841
X27486Y-34945
X27486Y-57268
T6
X19012Y-26520
X19031Y-21323
X19031Y-24323
X19205Y-17055
X19205Y-20055
X21563Y-16683
X22012Y-26520
X23104Y-18246
X23104Y-21246
X24392Y-19644
X24449Y-21343
X24469Y-18215
X24563Y-16683
X25561Y-41937
X25561Y-42921
X25561Y-43906
X25561Y-44890
X27392Y-19644
X27449Y-21343
X27469Y-18215
X30213Y-28624
X31197Y-28624
X32181Y-28624
X33165Y-28624
X47187Y-25699
X47187Y-26683
X47187Y-27667
X47187Y-28652
T7
X30897Y-34638
X30897Y-35638
X30897Y-36638
X30897Y-37638
X30897Y-38638
X30897Y-39638
X30897Y-40638
X30897Y-41638
X30897Y-42638
X30897Y-43638
X30897Y-44638
X30897Y-45638
X30897Y-46638
X31897Y-34638
X31897Y-35638
X31897Y-36638
X31897Y-37638
X31897Y-38638
X31897Y-39638
X31897Y-40638
X31897Y-41638
X31897Y-42638
X31897Y-43638
X31897Y-44638
X31897Y-45638
X31897Y-46638
X32955Y-17453
X33955Y-17453
X50816Y-34787
X50816Y-35787
X50816Y-36787
X50816Y-37787
X50816Y-38787
X50816Y-39787
X50816Y-40787
X50816Y-41787
X50816Y-42787
X50816Y-43787
X50816Y-44787
X50816Y-45787
X50816Y-46787
X51816Y-34787
X51816Y-35787
X51816Y-36787
X51816Y-37787
X51816Y-38787
X51816Y-39787
X51816Y-40787
X51816Y-41787
X51816Y-42787
X51816Y-43787
X51816Y-44787
X51816Y-45787
X51816Y-46787
X58327Y-49652
X58327Y-50652
X58327Y-51652
X58327Y-52652
X58327Y-53652
X58327Y-54652
X58327Y-55652
X58327Y-56652
X58327Y-57652
X60321Y-31990
X60321Y-32990
X60321Y-33990
X60321Y-34990
X60321Y-35990
X60321Y-36990
X60321Y-37990
X60321Y-38990
X60321Y-41654
X60321Y-42654
X60321Y-43654
X60321Y-44654
X60321Y-45654
X60321Y-46654
X60321Y-47654
X60321Y-48654
X62372Y-29366
X62372Y-30466
X62372Y-31516
X62372Y-32616
X62372Y-33716
X62372Y-34816
X62372Y-35866
X62372Y-36966
X62372Y-38066
X62372Y-39166
X62372Y-40216
X62372Y-41316
X62372Y-42416
X62384Y-50696
X62384Y-51796
X62384Y-52846
X62384Y-53946
X62384Y-55046
X62384Y-56146
X62384Y-57196
X62384Y-58296
X63372Y-29986
X63372Y-30986
X63372Y-32086
X63372Y-33166
X63372Y-34246
X63372Y-35346
X63372Y-36426
X63372Y-37506
X63372Y-38626
X63372Y-39686
X63372Y-40766
X63372Y-41866
X63384Y-51316
X63384Y-52316
X63384Y-53416
X63384Y-54496
X63384Y-55576
X63384Y-56676
X63384Y-57756
T8
X26539Y-13476
X37943Y-13136
X44457Y-13148
X50965Y-13122
X62150Y-15327
T10
X60455Y-60955
X60455Y-63955
X60506Y-54234
X60506Y-57234
T11
X19571Y-12321
X19571Y-14321
X20571Y-13321
X21571Y-12321
X21571Y-14321
X31159Y-12238
X31159Y-14238
X32159Y-13238
X33159Y-12238
X33159Y-14238
X61451Y-21655
X61451Y-23655
X62451Y-22655
X63451Y-21655
X63451Y-23655
T13
X28486Y-52663
X33659Y-52663
T14
X23969Y-38366
X23969Y-48366
X26644Y-27004
X36644Y-27004
T15
X25189Y-12126
X25189Y-14827
X27890Y-12126
X27890Y-14827
X36593Y-11785
X36593Y-14486
X39293Y-11785
X39293Y-14486
X43106Y-11797
X43106Y-14498
X45807Y-11797
X45807Y-14498
X49614Y-11772
X49614Y-14472
X52315Y-11772
X52315Y-14472
X60800Y-13976
X60800Y-16677
X63501Y-13976
X63501Y-16677
T16
X63284Y-61096
X63372Y-26616
X63372Y-45116
X63384Y-47896
T17
X19522Y-29205
X20071Y-64268
X44276Y-65120
X53864Y-18106
X58327Y-47880
X58327Y-65120
X63591Y-64817
T18
X41437Y-44018
T6
X19650Y-43561G85X19650Y-44348
G05
X20437Y-45805G85X21224Y-45805
G05
X22012Y-43561G85X22012Y-44348
G05
T9
X46409Y-62778G85X46409Y-62187
G05
X47394Y-63447G85X47394Y-62856
G05
X48083Y-65750G85X48673Y-65750
G05
X49736Y-61380G85X50327Y-61380
G05
X50150Y-64667G85X50150Y-64077
G05
X51886Y-62766G85X51886Y-62175
G05
X52870Y-63435G85X52870Y-62844
G05
X53559Y-65738G85X54150Y-65738
G05
X55213Y-61368G85X55803Y-61368
G05
X55626Y-64656G85X55626Y-64065
G05
T12
X20254Y-56305G85X19073Y-56305
G05
X20356Y-60041G85X19175Y-60041
G05
X23364Y-56305G85X22183Y-56305
G05
X23467Y-60041G85X22285Y-60041
G05
T0
M30
