G04 #@! TF.FileFunction,Paste,Top*
%FSLAX46Y46*%
G04 Gerber Fmt 4.6, Leading zero omitted, Abs format (unit mm)*
G04 Created by KiCad (PCBNEW 4.0.1-3.201512221401+6198~38~ubuntu15.10.1-stable) date Tue 04 Oct 2016 03:44:24 PM PDT*
%MOMM*%
G01*
G04 APERTURE LIST*
%ADD10C,0.100000*%
%ADD11R,2.000000X1.600000*%
%ADD12R,2.500000X2.000000*%
%ADD13R,1.778000X2.794000*%
%ADD14R,1.800860X2.700020*%
%ADD15R,1.700000X2.000000*%
%ADD16R,1.600000X2.000000*%
%ADD17R,2.000000X2.500000*%
%ADD18R,2.799080X1.198880*%
%ADD19R,2.799080X1.000760*%
%ADD20R,2.540000X1.650000*%
%ADD21R,2.794000X1.778000*%
%ADD22R,2.651760X2.029460*%
%ADD23R,0.760000X1.650000*%
%ADD24R,0.508000X1.143000*%
%ADD25R,2.700020X1.800860*%
%ADD26R,2.700000X1.400000*%
%ADD27R,1.400000X2.700000*%
%ADD28R,2.000000X1.700000*%
G04 APERTURE END LIST*
D10*
D11*
X81185000Y-127665000D03*
X77185000Y-127665000D03*
D12*
X120655000Y-147170000D03*
X120655000Y-143170000D03*
D13*
X120205000Y-61400000D03*
X123761000Y-61400000D03*
D14*
X129129400Y-70450000D03*
X133930000Y-70450000D03*
D11*
X123880000Y-65300000D03*
X127880000Y-65300000D03*
D15*
X141855000Y-60590000D03*
X141855000Y-56590000D03*
D11*
X129930000Y-60400000D03*
X133930000Y-60400000D03*
D13*
X130599000Y-64775000D03*
X134155000Y-64775000D03*
D16*
X138535000Y-60930000D03*
X138535000Y-64930000D03*
D17*
X145155000Y-71845000D03*
X149155000Y-71845000D03*
D18*
X147925000Y-48424580D03*
D19*
X147925000Y-46705000D03*
X144323280Y-46705000D03*
D10*
G36*
X145722820Y-49105300D02*
X142923740Y-49105300D01*
X142923740Y-48104540D01*
X145722820Y-48104540D01*
X145722820Y-49105300D01*
X145722820Y-49105300D01*
G37*
D16*
X147925000Y-53455000D03*
X147925000Y-57455000D03*
X144335000Y-39425000D03*
X144335000Y-43425000D03*
D12*
X101250000Y-45055000D03*
X101250000Y-49055000D03*
D16*
X97100000Y-45155000D03*
X97100000Y-49155000D03*
D11*
X65840000Y-42455000D03*
X69840000Y-42455000D03*
D13*
X72795000Y-53235000D03*
X76351000Y-53235000D03*
D11*
X56075000Y-63680000D03*
X52075000Y-63680000D03*
D20*
X74205000Y-44560000D03*
X79285000Y-44560000D03*
X74205000Y-47100000D03*
X74205000Y-49640000D03*
X79285000Y-49640000D03*
X79285000Y-47100000D03*
D11*
X69545000Y-115990000D03*
X73545000Y-115990000D03*
D13*
X68904000Y-104310000D03*
X72460000Y-104310000D03*
D14*
X81684400Y-80400000D03*
X86485000Y-80400000D03*
D13*
X81759000Y-84150000D03*
X85315000Y-84150000D03*
X77870000Y-80300000D03*
X74314000Y-80300000D03*
X131766000Y-122065000D03*
X128210000Y-122065000D03*
D15*
X116560000Y-147565000D03*
X116560000Y-143565000D03*
X112625000Y-147090000D03*
X112625000Y-143090000D03*
D11*
X77670000Y-76655000D03*
X73670000Y-76655000D03*
X81925000Y-76655000D03*
X85925000Y-76655000D03*
D16*
X129380000Y-148760000D03*
X129380000Y-144760000D03*
D15*
X126270000Y-146225000D03*
X126270000Y-142225000D03*
D21*
X73265000Y-112155000D03*
X73265000Y-108599000D03*
D12*
X148550000Y-101990000D03*
X148550000Y-105990000D03*
D17*
X138255000Y-76170000D03*
X142255000Y-76170000D03*
D13*
X63781000Y-134105000D03*
X60225000Y-134105000D03*
D22*
X64115000Y-139085000D03*
X68285680Y-139085000D03*
D23*
X51880000Y-49685000D03*
X54420000Y-49685000D03*
X51880000Y-46510000D03*
X53150000Y-46510000D03*
X54420000Y-46510000D03*
D24*
X55780000Y-59770000D03*
X54510000Y-59770000D03*
X53240000Y-59770000D03*
X51970000Y-59770000D03*
X51970000Y-53420000D03*
X53240000Y-53420000D03*
X54510000Y-53420000D03*
X55780000Y-53420000D03*
D25*
X69235000Y-112450000D03*
X69235000Y-107649400D03*
D26*
X92060000Y-53198760D03*
X92060000Y-55998760D03*
D27*
X140623760Y-53455000D03*
X143423760Y-53455000D03*
D26*
X74070000Y-57773760D03*
X74070000Y-60573760D03*
D27*
X130055000Y-75290000D03*
X132855000Y-75290000D03*
X133343760Y-151055000D03*
X136143760Y-151055000D03*
D28*
X155455000Y-150385000D03*
X151455000Y-150385000D03*
D15*
X146580000Y-160400000D03*
X146580000Y-156400000D03*
D20*
X149200000Y-35785000D03*
X144120000Y-35785000D03*
X149200000Y-33245000D03*
X149200000Y-30705000D03*
X144120000Y-30705000D03*
X144120000Y-33245000D03*
M02*
