G04 #@! TF.FileFunction,Copper,L4,Bot,Signal*
%FSLAX46Y46*%
G04 Gerber Fmt 4.6, Leading zero omitted, Abs format (unit mm)*
G04 Created by KiCad (PCBNEW 4.0.1-3.201512221401+6198~38~ubuntu15.10.1-stable) date Tue 04 Oct 2016 03:44:24 PM PDT*
%MOMM*%
G01*
G04 APERTURE LIST*
%ADD10C,0.100000*%
%ADD11C,4.064000*%
%ADD12O,1.600000X1.600000*%
%ADD13R,1.727200X1.727200*%
%ADD14O,1.727200X1.727200*%
%ADD15C,1.998980*%
%ADD16O,2.499360X1.501140*%
%ADD17C,1.524000*%
%ADD18C,1.800000*%
%ADD19C,2.880000*%
%ADD20C,3.048000*%
%ADD21R,2.032000X2.032000*%
%ADD22O,2.032000X2.032000*%
%ADD23C,4.000000*%
%ADD24O,7.000000X4.500000*%
%ADD25O,1.501140X2.499360*%
%ADD26R,3.500120X3.500120*%
%ADD27C,3.540760*%
%ADD28R,3.540760X3.540760*%
%ADD29R,2.032000X1.727200*%
%ADD30O,2.032000X1.727200*%
%ADD31C,3.810000*%
%ADD32R,1.524000X1.524000*%
%ADD33C,41.000000*%
%ADD34C,1.540000*%
%ADD35C,3.000000*%
%ADD36O,3.400000X2.000000*%
%ADD37O,2.000000X3.400000*%
%ADD38C,0.600000*%
%ADD39C,0.800000*%
%ADD40C,0.250000*%
%ADD41C,0.700000*%
%ADD42C,0.500000*%
G04 APERTURE END LIST*
D10*
D11*
X136815000Y-45990000D03*
X49585000Y-74180000D03*
X50980000Y-163240000D03*
X161520000Y-164635000D03*
X112460000Y-165405000D03*
X148150000Y-165405000D03*
D12*
X135745000Y-105795000D03*
X135745000Y-108335000D03*
X135745000Y-110875000D03*
X135745000Y-113415000D03*
X135745000Y-115955000D03*
X135745000Y-118495000D03*
X135745000Y-121035000D03*
X135745000Y-123575000D03*
X143365000Y-123575000D03*
X143365000Y-121035000D03*
X143365000Y-118495000D03*
X143365000Y-115955000D03*
X143365000Y-113415000D03*
X143365000Y-110875000D03*
X143365000Y-108335000D03*
X143365000Y-105795000D03*
D13*
X131612160Y-118838160D03*
D14*
X129072160Y-118838160D03*
X131612160Y-116298160D03*
X129072160Y-116298160D03*
X131612160Y-113758160D03*
X129072160Y-113758160D03*
X131612160Y-111218160D03*
X129072160Y-111218160D03*
X131612160Y-108678160D03*
X129072160Y-108678160D03*
X131612160Y-106138160D03*
X129072160Y-106138160D03*
X131612160Y-103598160D03*
X129072160Y-103598160D03*
X131612160Y-101058160D03*
X129072160Y-101058160D03*
X131612160Y-98518160D03*
X129072160Y-98518160D03*
X131612160Y-95978160D03*
X129072160Y-95978160D03*
X131612160Y-93438160D03*
X129072160Y-93438160D03*
X131612160Y-90898160D03*
X129072160Y-90898160D03*
X131612160Y-88358160D03*
X129072160Y-88358160D03*
D15*
X62150000Y-46265000D03*
X69770000Y-46265000D03*
D13*
X81017900Y-118459700D03*
D14*
X78477900Y-118459700D03*
X81017900Y-115919700D03*
X78477900Y-115919700D03*
X81017900Y-113379700D03*
X78477900Y-113379700D03*
X81017900Y-110839700D03*
X78477900Y-110839700D03*
X81017900Y-108299700D03*
X78477900Y-108299700D03*
X81017900Y-105759700D03*
X78477900Y-105759700D03*
X81017900Y-103219700D03*
X78477900Y-103219700D03*
X81017900Y-100679700D03*
X78477900Y-100679700D03*
X81017900Y-98139700D03*
X78477900Y-98139700D03*
X81017900Y-95599700D03*
X78477900Y-95599700D03*
X81017900Y-93059700D03*
X78477900Y-93059700D03*
X81017900Y-90519700D03*
X78477900Y-90519700D03*
X81017900Y-87979700D03*
X78477900Y-87979700D03*
D16*
X119855000Y-70275000D03*
X119855000Y-72775000D03*
X119855000Y-67775000D03*
X119855000Y-65275000D03*
D17*
X115200000Y-44705000D03*
X112000000Y-44705000D03*
X109800000Y-44705000D03*
X107600000Y-44705000D03*
X115200000Y-47905000D03*
X112000000Y-47905000D03*
X109800000Y-47905000D03*
X107600000Y-47905000D03*
D18*
X112920000Y-33395000D03*
D19*
X116350000Y-36825000D03*
X109490000Y-36825000D03*
X109490000Y-29965000D03*
X116350000Y-29965000D03*
D18*
X129450000Y-33330000D03*
D19*
X132880000Y-36760000D03*
X126020000Y-36760000D03*
X126020000Y-29900000D03*
X132880000Y-29900000D03*
D17*
X122550000Y-48005000D03*
X125750000Y-48005000D03*
X127950000Y-48005000D03*
X130150000Y-48005000D03*
X122550000Y-44805000D03*
X125750000Y-44805000D03*
X127950000Y-44805000D03*
X130150000Y-44805000D03*
D20*
X158626227Y-57543329D03*
X161166227Y-55003329D03*
X161166227Y-60083329D03*
X156086227Y-60083329D03*
X156086227Y-55003329D03*
D18*
X157861600Y-38929680D03*
D19*
X154431600Y-42359680D03*
X154431600Y-35499680D03*
X161291600Y-35499680D03*
X161291600Y-42359680D03*
D18*
X96375000Y-33365000D03*
D19*
X99805000Y-36795000D03*
X92945000Y-36795000D03*
X92945000Y-29935000D03*
X99805000Y-29935000D03*
D20*
X81685000Y-33625000D03*
X79145000Y-31085000D03*
X84225000Y-31085000D03*
X84225000Y-36165000D03*
X79145000Y-36165000D03*
D21*
X86245000Y-44330000D03*
D22*
X83705000Y-44330000D03*
D18*
X67410000Y-34230000D03*
D19*
X70840000Y-37660000D03*
X63980000Y-37660000D03*
X63980000Y-30800000D03*
X70840000Y-30800000D03*
D15*
X69720000Y-54210000D03*
X62100000Y-54210000D03*
X69575000Y-49895000D03*
X61955000Y-49895000D03*
D23*
X60880000Y-97450000D03*
X60880000Y-122850000D03*
D16*
X64925000Y-111520000D03*
X64925000Y-114020000D03*
X64925000Y-109020000D03*
X64925000Y-106520000D03*
D24*
X50205000Y-152505000D03*
X58105000Y-152505000D03*
D23*
X67675000Y-68590000D03*
X93075000Y-68590000D03*
D24*
X49945000Y-143015000D03*
X57845000Y-143015000D03*
D17*
X52870000Y-77515000D03*
X52870000Y-134215000D03*
D25*
X79240000Y-72705000D03*
X76740000Y-72705000D03*
X81740000Y-72705000D03*
X84240000Y-72705000D03*
D12*
X135825000Y-81290000D03*
X135825000Y-83830000D03*
X135825000Y-86370000D03*
X135825000Y-88910000D03*
X135825000Y-91450000D03*
X135825000Y-93990000D03*
X135825000Y-96530000D03*
X135825000Y-99070000D03*
X143445000Y-99070000D03*
X143445000Y-96530000D03*
X143445000Y-93990000D03*
X143445000Y-91450000D03*
X143445000Y-88910000D03*
X143445000Y-86370000D03*
X143445000Y-83830000D03*
X143445000Y-81290000D03*
D26*
X55910000Y-111645000D03*
X49910520Y-111645000D03*
X52910260Y-116344000D03*
D20*
X52250000Y-33835000D03*
X49710000Y-36375000D03*
X49710000Y-31295000D03*
X54790000Y-31295000D03*
X54790000Y-36375000D03*
D15*
X48780000Y-50940000D03*
X48780000Y-43320000D03*
X62390000Y-42375000D03*
X54770000Y-42375000D03*
X48340000Y-61780000D03*
X48340000Y-54160000D03*
X58685000Y-46345000D03*
X58685000Y-53965000D03*
X55910000Y-67360000D03*
X48290000Y-67360000D03*
D17*
X69815000Y-88760000D03*
X69815000Y-145460000D03*
D27*
X153685000Y-145375000D03*
D28*
X153685000Y-137755000D03*
D27*
X153555000Y-162445000D03*
D28*
X153555000Y-154825000D03*
D29*
X148150000Y-146435000D03*
D30*
X148150000Y-143895000D03*
X148150000Y-141355000D03*
X148150000Y-138815000D03*
X148150000Y-136275000D03*
X148150000Y-133735000D03*
X148150000Y-131195000D03*
X148150000Y-128655000D03*
X148150000Y-126115000D03*
D29*
X153215000Y-123580000D03*
D30*
X153215000Y-121040000D03*
X153215000Y-118500000D03*
X153215000Y-115960000D03*
X153215000Y-113420000D03*
X153215000Y-110880000D03*
X153215000Y-108340000D03*
X153215000Y-105800000D03*
D29*
X153215000Y-99035000D03*
D30*
X153215000Y-96495000D03*
X153215000Y-93955000D03*
X153215000Y-91415000D03*
X153215000Y-88875000D03*
X153215000Y-86335000D03*
X153215000Y-83795000D03*
X153215000Y-81255000D03*
D31*
X160741000Y-155183000D03*
X160995000Y-121655000D03*
D32*
X158455000Y-128767000D03*
D17*
X158455000Y-131561000D03*
X158455000Y-134228000D03*
X158455000Y-137022000D03*
X158455000Y-139816000D03*
X158455000Y-142610000D03*
X158455000Y-145277000D03*
X158455000Y-148071000D03*
X160995000Y-130341800D03*
X160995000Y-132881800D03*
X160995000Y-135675800D03*
X160995000Y-138419000D03*
X160995000Y-141162200D03*
X160995000Y-143956200D03*
X160995000Y-146699400D03*
D31*
X160965000Y-114595000D03*
X160965000Y-67605000D03*
D32*
X158425000Y-74590000D03*
D17*
X158425000Y-77384000D03*
X158425000Y-80051000D03*
X158425000Y-82845000D03*
X158425000Y-85639000D03*
X158425000Y-88433000D03*
X158425000Y-91100000D03*
X158425000Y-93894000D03*
X158425000Y-96688000D03*
X158425000Y-99482000D03*
X158425000Y-102149000D03*
X158425000Y-104943000D03*
X158425000Y-107737000D03*
X160965000Y-76164800D03*
X160965000Y-78704800D03*
X160965000Y-81498800D03*
X160965000Y-84242000D03*
X160965000Y-86985200D03*
X160965000Y-89779200D03*
X160965000Y-92522400D03*
X160965000Y-95265600D03*
X160965000Y-98110400D03*
X160965000Y-100802800D03*
X160965000Y-103546000D03*
X160965000Y-106340000D03*
D33*
X105250000Y-111805000D03*
D11*
X148150000Y-121615000D03*
D34*
X79925000Y-136475000D03*
X77925000Y-136475000D03*
X82425000Y-136475000D03*
X75425000Y-136475000D03*
D35*
X85495000Y-133765000D03*
X72355000Y-133765000D03*
D36*
X122880000Y-167005000D03*
D37*
X120380000Y-160405000D03*
X117880000Y-158705000D03*
X127380000Y-163505000D03*
D36*
X127080000Y-155905000D03*
X136790000Y-166975000D03*
D37*
X134290000Y-160375000D03*
X131790000Y-158675000D03*
X141290000Y-163475000D03*
D36*
X140990000Y-155875000D03*
D38*
X77185000Y-129330000D03*
X52015000Y-52145000D03*
X128170000Y-124730000D03*
X52100000Y-65515000D03*
X58325000Y-134105000D03*
X120470000Y-141310000D03*
X128835000Y-142860000D03*
X152010000Y-72920000D03*
X144395000Y-76170000D03*
X75174000Y-108599000D03*
X75345000Y-115990000D03*
X75055000Y-82640000D03*
X73420000Y-74795000D03*
X86860000Y-83000000D03*
X87850000Y-80400000D03*
X86945000Y-75045000D03*
X147975000Y-156400000D03*
X149760000Y-150385000D03*
X148535000Y-107805000D03*
X140105000Y-66045000D03*
X134155000Y-67385000D03*
X127880000Y-66900000D03*
X135610000Y-70070000D03*
X132595000Y-61370000D03*
X101250000Y-50755000D03*
X97100000Y-50650000D03*
X78070000Y-53085000D03*
X148755000Y-45905000D03*
X145215000Y-49745000D03*
X143752190Y-49582810D03*
X144475000Y-49845000D03*
X149985000Y-46495000D03*
X147775000Y-45710000D03*
X142060000Y-30615000D03*
X146465000Y-102125000D03*
X143645000Y-71845000D03*
X136665000Y-76170000D03*
X134380000Y-75290000D03*
X101065000Y-43470000D03*
X98600000Y-45155000D03*
X93795000Y-51850000D03*
X56485000Y-61770000D03*
X56734000Y-59770000D03*
X70210000Y-56645000D03*
X72160000Y-55795000D03*
X81185000Y-129405000D03*
X73290000Y-114050000D03*
X127970000Y-75290000D03*
X91325000Y-59350000D03*
X92975000Y-59150000D03*
X72710000Y-65350000D03*
X74070000Y-64810000D03*
X75646240Y-64250000D03*
X80485000Y-77625000D03*
X83175000Y-82970000D03*
X83640000Y-80400000D03*
X124210000Y-135665000D03*
X89740000Y-133565000D03*
X83939960Y-121965000D03*
X116170000Y-141380000D03*
X116170000Y-136815000D03*
X88590000Y-133685000D03*
X110600000Y-148735000D03*
X112604999Y-140860001D03*
X112305000Y-135160000D03*
X91050000Y-133455000D03*
X141115000Y-83655000D03*
X119385000Y-49345000D03*
X141610000Y-81290000D03*
X126260000Y-103105000D03*
X114715000Y-86004990D03*
X76630000Y-87590000D03*
X134700000Y-97700000D03*
X54514489Y-54964489D03*
X53210000Y-51535000D03*
X68285680Y-137180680D03*
X70190000Y-139085000D03*
X68285680Y-140995680D03*
X77267000Y-83000000D03*
X77795000Y-83745000D03*
X78215000Y-82742000D03*
X155959999Y-97775001D03*
X164545000Y-128490000D03*
X164709990Y-100802800D03*
X163389990Y-130510000D03*
X163225000Y-99510000D03*
X156235000Y-134535000D03*
X156060000Y-126345000D03*
X158740000Y-125600000D03*
X165335000Y-136635000D03*
X165290000Y-97920000D03*
X164559998Y-142189998D03*
X164166000Y-103546000D03*
X156685001Y-132514999D03*
X156645000Y-84445000D03*
X163750000Y-135380000D03*
X163710000Y-106450000D03*
X157230010Y-100925000D03*
X162410000Y-96210000D03*
X149770000Y-75475000D03*
X149110000Y-78285000D03*
X155315000Y-80155000D03*
X155510010Y-82970000D03*
X155510010Y-88875000D03*
X150515000Y-76290000D03*
X117330000Y-149190000D03*
X129380000Y-150220000D03*
X112625000Y-148790000D03*
X120525000Y-149000000D03*
X126270000Y-147925000D03*
X130835000Y-151055000D03*
X55215000Y-46510000D03*
X141060000Y-151055000D03*
X133830000Y-89450000D03*
X83590000Y-89390000D03*
X83525010Y-105985000D03*
X92145000Y-133240000D03*
X84245000Y-103360000D03*
X84690000Y-87945000D03*
X137415001Y-87784999D03*
X143505000Y-143515000D03*
X142890000Y-134350000D03*
X93810000Y-132955000D03*
X84225000Y-104565000D03*
X127430000Y-117120000D03*
X126970000Y-88220000D03*
X85542008Y-87976890D03*
X85010000Y-100435000D03*
X139805000Y-114905000D03*
X134235009Y-109620000D03*
X134400000Y-92465000D03*
X82964990Y-91115000D03*
X124460000Y-89715011D03*
X126745000Y-111790000D03*
X134090000Y-113920000D03*
X141890000Y-139895000D03*
X141645000Y-134005020D03*
X93015000Y-133105000D03*
X82245000Y-107025000D03*
X80005000Y-106830000D03*
X134995000Y-129350000D03*
X131765000Y-130815000D03*
X151115000Y-30705000D03*
X81400000Y-48910000D03*
X137545000Y-120905000D03*
X137720000Y-96335000D03*
X138640000Y-118000000D03*
X138640000Y-93920000D03*
X138925000Y-91450000D03*
X143365000Y-113415000D03*
X139859990Y-89145000D03*
X140485000Y-86265000D03*
D39*
X126740000Y-60405000D02*
X131020000Y-60405000D01*
X125590000Y-61555000D02*
X126740000Y-60405000D01*
X134040000Y-62815000D02*
X134040000Y-66790000D01*
X132595000Y-61370000D02*
X134040000Y-62815000D01*
D40*
X89740000Y-132440000D02*
X89740000Y-133565000D01*
X87795000Y-130495000D02*
X89740000Y-132440000D01*
X84114960Y-126814960D02*
X87795000Y-130495000D01*
X83939960Y-121965000D02*
X83939960Y-122389264D01*
X83939960Y-122389264D02*
X84114960Y-122564264D01*
X84114960Y-122564264D02*
X84114960Y-126814960D01*
X116170000Y-136815000D02*
X116170000Y-141380000D01*
X88590000Y-132030000D02*
X88590000Y-133685000D01*
X84165000Y-127605000D02*
X88590000Y-132030000D01*
X83664950Y-127074950D02*
X84165000Y-127575000D01*
X84165000Y-127575000D02*
X84165000Y-127605000D01*
X82595000Y-122055000D02*
X82720000Y-122055000D01*
X82720000Y-122055000D02*
X83664950Y-122999950D01*
X83664950Y-122999950D02*
X83664950Y-127074950D01*
X82300998Y-122055000D02*
X82595000Y-122055000D01*
X79388299Y-116783299D02*
X79829299Y-117224299D01*
X79829299Y-117224299D02*
X79829299Y-119583301D01*
X79829299Y-119583301D02*
X82300998Y-122055000D01*
X78477900Y-115919700D02*
X79341499Y-116783299D01*
X79341499Y-116783299D02*
X79388299Y-116783299D01*
X110600000Y-148735000D02*
X110600000Y-149159264D01*
X110600000Y-149159264D02*
X116030736Y-154590000D01*
X116030736Y-154590000D02*
X121340000Y-154590000D01*
X121340000Y-154590000D02*
X122850000Y-153080000D01*
X129820000Y-153080000D02*
X131790000Y-155050000D01*
X122850000Y-153080000D02*
X129820000Y-153080000D01*
X131790000Y-155050000D02*
X131790000Y-158675000D01*
X112305000Y-135160000D02*
X112604999Y-135459999D01*
X112604999Y-135459999D02*
X112604999Y-140860001D01*
X91050000Y-133015000D02*
X91050000Y-133455000D01*
X84564970Y-126529970D02*
X91050000Y-133015000D01*
X82575000Y-117160000D02*
X82575000Y-117335000D01*
X82575000Y-115032820D02*
X82575000Y-117160000D01*
X82575000Y-117160000D02*
X82575000Y-119697818D01*
X82575000Y-119697818D02*
X84564970Y-121687788D01*
X84564970Y-121687788D02*
X84564970Y-126529970D01*
X82400000Y-114730000D02*
X82400000Y-114857820D01*
X82400000Y-114857820D02*
X82575000Y-115032820D01*
X79829299Y-114109299D02*
X80288301Y-114568301D01*
X80288301Y-114568301D02*
X82238301Y-114568301D01*
X82238301Y-114568301D02*
X82400000Y-114730000D01*
X78477900Y-110839700D02*
X79829299Y-112191099D01*
X79829299Y-112191099D02*
X79829299Y-114109299D01*
X141115000Y-83655000D02*
X141115000Y-106085000D01*
X141115000Y-106085000D02*
X143365000Y-108335000D01*
D41*
X130150000Y-44805000D02*
X130150000Y-48005000D01*
X128080000Y-42400000D02*
X128080000Y-42735000D01*
X128080000Y-42735000D02*
X130150000Y-44805000D01*
X89891000Y-42400000D02*
X128080000Y-42400000D01*
X86245000Y-44330000D02*
X87961000Y-44330000D01*
X87961000Y-44330000D02*
X89891000Y-42400000D01*
D42*
X119540000Y-48765736D02*
X119540000Y-47815000D01*
X119540000Y-47815000D02*
X122550000Y-44805000D01*
X119385000Y-49345000D02*
X119385000Y-48920736D01*
X119385000Y-48920736D02*
X119540000Y-48765736D01*
D40*
X141750000Y-81854264D02*
X141750000Y-104180000D01*
X141750000Y-104180000D02*
X143365000Y-105795000D01*
X141610000Y-81290000D02*
X141610000Y-81714264D01*
X141610000Y-81714264D02*
X141750000Y-81854264D01*
X126529980Y-102835020D02*
X126260000Y-103105000D01*
X126529980Y-93530000D02*
X126529980Y-102835020D01*
X126529980Y-92259980D02*
X126529980Y-93530000D01*
X125225000Y-91460000D02*
X125730000Y-91460000D01*
X125730000Y-91460000D02*
X126529980Y-92259980D01*
X125225000Y-87360000D02*
X125225000Y-91460000D01*
X114715000Y-87035000D02*
X115040000Y-87360000D01*
X115040000Y-87360000D02*
X125225000Y-87360000D01*
X114715000Y-86004990D02*
X114715000Y-87035000D01*
X76630000Y-113290930D02*
X76630000Y-87590000D01*
X81017900Y-115919700D02*
X80154301Y-115056101D01*
X80154301Y-115056101D02*
X79373431Y-115056101D01*
X79373431Y-115056101D02*
X78885631Y-114568301D01*
X78885631Y-114568301D02*
X77907371Y-114568301D01*
X77907371Y-114568301D02*
X76630000Y-113290930D01*
X134619999Y-109099999D02*
X134945001Y-109425001D01*
X134945001Y-109425001D02*
X134945001Y-110075001D01*
X134945001Y-110075001D02*
X135745000Y-110875000D01*
X134700000Y-97700000D02*
X134700000Y-98124264D01*
X134700000Y-98124264D02*
X134619999Y-98204265D01*
X134619999Y-98204265D02*
X134619999Y-109099999D01*
D41*
X50760000Y-54560000D02*
X51164489Y-54964489D01*
X51164489Y-54964489D02*
X54514489Y-54964489D01*
X50760000Y-53945000D02*
X50760000Y-54560000D01*
X49779489Y-52964489D02*
X50760000Y-53945000D01*
X48780000Y-50940000D02*
X49779489Y-51939489D01*
X49779489Y-51939489D02*
X49779489Y-52964489D01*
X53570000Y-51895000D02*
X53210000Y-51535000D01*
X61198492Y-51895000D02*
X53570000Y-51895000D01*
X62100000Y-54210000D02*
X62100000Y-52796508D01*
X62100000Y-52796508D02*
X61198492Y-51895000D01*
D42*
X62150000Y-46265000D02*
X58765000Y-46265000D01*
X58765000Y-46265000D02*
X58685000Y-46345000D01*
D40*
X150850000Y-128409602D02*
X150850000Y-139280762D01*
X159917370Y-146699400D02*
X160995000Y-146699400D01*
X150850000Y-139280762D02*
X158268638Y-146699400D01*
X158268638Y-146699400D02*
X159917370Y-146699400D01*
X155959999Y-97775001D02*
X155959999Y-123299603D01*
X155959999Y-123299603D02*
X150850000Y-128409602D01*
X156305002Y-83639998D02*
X155945782Y-83999218D01*
X155945782Y-83999218D02*
X155945782Y-86465782D01*
X155945782Y-86465782D02*
X156154990Y-86674990D01*
X155959999Y-97350737D02*
X155959999Y-97775001D01*
X156154990Y-86674990D02*
X156154990Y-97155746D01*
X156154990Y-97155746D02*
X155959999Y-97350737D01*
X156765000Y-83639998D02*
X156305002Y-83639998D01*
X158925000Y-84240000D02*
X157365002Y-84240000D01*
X157365002Y-84240000D02*
X156765000Y-83639998D01*
X159172999Y-83992001D02*
X158925000Y-84240000D01*
X159877999Y-83227001D02*
X159172999Y-83932001D01*
X159172999Y-83932001D02*
X159172999Y-83992001D01*
X159877999Y-79737001D02*
X159932799Y-79737001D01*
X159932799Y-79737001D02*
X160965000Y-78704800D01*
X159877999Y-83227001D02*
X159877999Y-79737001D01*
X153555000Y-154825000D02*
X155575380Y-154825000D01*
X160995000Y-149405380D02*
X160995000Y-147777030D01*
X160995000Y-147777030D02*
X160995000Y-146699400D01*
X155575380Y-154825000D02*
X160995000Y-149405380D01*
X164850000Y-128185000D02*
X164545000Y-128490000D01*
X164850000Y-112295000D02*
X164850000Y-128185000D01*
X164850000Y-108295000D02*
X164850000Y-112295000D01*
X164850000Y-101367074D02*
X164850000Y-108295000D01*
X164709990Y-100802800D02*
X164709990Y-101227064D01*
X164709990Y-101227064D02*
X164850000Y-101367074D01*
X163355000Y-130025000D02*
X163355000Y-130475010D01*
X163355000Y-130475010D02*
X163389990Y-130510000D01*
X163019979Y-129689979D02*
X163355000Y-130025000D01*
X163499970Y-110986400D02*
X163499970Y-127337208D01*
X163499970Y-127337208D02*
X163019979Y-127817199D01*
X163019979Y-127817199D02*
X163019979Y-129689979D01*
X163259990Y-109320010D02*
X163259991Y-110746421D01*
X163259991Y-110746421D02*
X163499970Y-110986400D01*
X163259990Y-107014990D02*
X163259990Y-109320010D01*
X163225000Y-99510000D02*
X163225000Y-106009998D01*
X163225000Y-106009998D02*
X163084999Y-106149999D01*
X163084999Y-106149999D02*
X163084999Y-106839999D01*
X163084999Y-106839999D02*
X163259990Y-107014990D01*
X156060000Y-134360000D02*
X156235000Y-134535000D01*
X156060000Y-126345000D02*
X156060000Y-134360000D01*
X158740000Y-125290000D02*
X158740000Y-125600000D01*
X158734999Y-125284999D02*
X158740000Y-125290000D01*
X159877999Y-111417001D02*
X158734999Y-112560001D01*
X158734999Y-112560001D02*
X158734999Y-125284999D01*
X159186999Y-103421999D02*
X159877999Y-104112999D01*
X159877999Y-104112999D02*
X159877999Y-111417001D01*
X158425000Y-102149000D02*
X159186999Y-102910999D01*
X159186999Y-102910999D02*
X159186999Y-103421999D01*
X165335000Y-98389264D02*
X165335000Y-136635000D01*
X165290000Y-97920000D02*
X165290000Y-98344264D01*
X165290000Y-98344264D02*
X165335000Y-98389264D01*
X164559998Y-129430000D02*
X164559998Y-142189998D01*
X163919999Y-128189999D02*
X163919999Y-128790001D01*
X163919999Y-128790001D02*
X164559998Y-129430000D01*
X164399990Y-112108600D02*
X164399990Y-127710008D01*
X164399990Y-127710008D02*
X163919999Y-128189999D01*
X164399990Y-105079990D02*
X164399990Y-112108600D01*
X164190000Y-103994264D02*
X164190000Y-104870000D01*
X164190000Y-104870000D02*
X164399990Y-105079990D01*
X164166000Y-103546000D02*
X164166000Y-103970264D01*
X164166000Y-103970264D02*
X164190000Y-103994264D01*
X156510010Y-132689990D02*
X156685001Y-132514999D01*
X156605000Y-84909264D02*
X156605000Y-125964998D01*
X156685001Y-126044999D02*
X156685001Y-132514999D01*
X156605000Y-125964998D02*
X156685001Y-126044999D01*
X156645000Y-84445000D02*
X156645000Y-84869264D01*
X156645000Y-84869264D02*
X156605000Y-84909264D01*
X164015000Y-132220000D02*
X164015000Y-135115000D01*
X164015000Y-135115000D02*
X163750000Y-135380000D01*
X164015000Y-129630000D02*
X164015000Y-132220000D01*
X163949980Y-127035000D02*
X163949980Y-127523608D01*
X163949980Y-127523608D02*
X163469989Y-128003599D01*
X163469989Y-128003599D02*
X163469989Y-129084989D01*
X163469989Y-129084989D02*
X164015000Y-129630000D01*
X163949980Y-126265020D02*
X163949980Y-127035000D01*
X163949980Y-110800000D02*
X163949980Y-126265020D01*
X163710000Y-110560020D02*
X163949980Y-110800000D01*
X163710000Y-106450000D02*
X163710000Y-110560020D01*
X157230010Y-100925000D02*
X157230010Y-131944772D01*
X157230010Y-131944772D02*
X157367999Y-132082761D01*
X157367999Y-132082761D02*
X157367999Y-136092381D01*
X157367999Y-136092381D02*
X155705380Y-137755000D01*
X155705380Y-137755000D02*
X153685000Y-137755000D01*
X159125000Y-98050000D02*
X160665001Y-96509999D01*
X160665001Y-96509999D02*
X162110001Y-96509999D01*
X162110001Y-96509999D02*
X162410000Y-96210000D01*
X158248238Y-98050000D02*
X159125000Y-98050000D01*
X157255000Y-100475746D02*
X157255000Y-99043238D01*
X157255000Y-99043238D02*
X158248238Y-98050000D01*
X157230010Y-100925000D02*
X157230010Y-100500736D01*
X157230010Y-100500736D02*
X157255000Y-100475746D01*
X162410000Y-83180000D02*
X162410000Y-96210000D01*
X161726999Y-82496999D02*
X162410000Y-83180000D01*
X160965000Y-81498800D02*
X161726999Y-82260799D01*
X161726999Y-82260799D02*
X161726999Y-82496999D01*
X153685000Y-137755000D02*
X153685000Y-139775380D01*
X153685000Y-139775380D02*
X157865820Y-143956200D01*
X157865820Y-143956200D02*
X160995000Y-143956200D01*
X149770000Y-75475000D02*
X149770000Y-88122400D01*
X149770000Y-88122400D02*
X153062600Y-91415000D01*
X153062600Y-91415000D02*
X153215000Y-91415000D01*
X149110000Y-78285000D02*
X149110000Y-90002400D01*
X149110000Y-90002400D02*
X153062600Y-93955000D01*
X153062600Y-93955000D02*
X153215000Y-93955000D01*
X154885000Y-80585000D02*
X155315000Y-80155000D01*
X154885000Y-96091000D02*
X154885000Y-80585000D01*
X153215000Y-96495000D02*
X154481000Y-96495000D01*
X154481000Y-96495000D02*
X154885000Y-96091000D01*
X155435000Y-88375726D02*
X155510010Y-82970000D01*
X155435000Y-82970000D02*
X155510010Y-82970000D01*
X155510010Y-88875000D02*
X155510010Y-88450736D01*
X155510010Y-88450736D02*
X155435000Y-88375726D01*
X150515000Y-76290000D02*
X150515000Y-76714264D01*
X150515000Y-76714264D02*
X150590000Y-76789264D01*
X150590000Y-76789264D02*
X150590000Y-83862400D01*
X150590000Y-83862400D02*
X153062600Y-86335000D01*
X153062600Y-86335000D02*
X153215000Y-86335000D01*
X133830000Y-89450000D02*
X134129999Y-89749999D01*
X134129999Y-89749999D02*
X134129999Y-91394999D01*
X134129999Y-91394999D02*
X133609999Y-91914999D01*
X133609999Y-91914999D02*
X133609999Y-111279999D01*
X133609999Y-111279999D02*
X134945001Y-112615001D01*
X134945001Y-112615001D02*
X135745000Y-113415000D01*
X83590000Y-93742690D02*
X83590000Y-89390000D01*
X83525010Y-105985000D02*
X83525010Y-93807680D01*
X83525010Y-93807680D02*
X83590000Y-93742690D01*
X89840000Y-130935000D02*
X92145000Y-133240000D01*
X85014980Y-126179980D02*
X89770000Y-130935000D01*
X89770000Y-130935000D02*
X89840000Y-130935000D01*
X83079971Y-119566381D02*
X85014980Y-121501390D01*
X85014980Y-121501390D02*
X85014980Y-126179980D01*
X82874970Y-114696380D02*
X83079970Y-114901380D01*
X83079970Y-114901380D02*
X83079971Y-119566381D01*
X82874970Y-113986400D02*
X82874970Y-114696380D01*
X82874970Y-112321572D02*
X82874970Y-113986400D01*
X82581699Y-112028301D02*
X82874970Y-112321572D01*
X80385000Y-111985000D02*
X80404070Y-111985000D01*
X80404070Y-111985000D02*
X80447371Y-112028301D01*
X80447371Y-112028301D02*
X82581699Y-112028301D01*
X79765000Y-111365000D02*
X80385000Y-111985000D01*
X79765000Y-110137198D02*
X79765000Y-111365000D01*
X79278901Y-109651099D02*
X79765000Y-110137198D01*
X77185000Y-109185000D02*
X77651099Y-109651099D01*
X77651099Y-109651099D02*
X79278901Y-109651099D01*
X77185000Y-107052600D02*
X77185000Y-109185000D01*
X78477900Y-105759700D02*
X77185000Y-107052600D01*
X137260000Y-96820000D02*
X137260000Y-114440000D01*
X84245000Y-103360000D02*
X84245000Y-88480000D01*
X84690000Y-88035000D02*
X84690000Y-87945000D01*
X84245000Y-88480000D02*
X84690000Y-88035000D01*
X137094999Y-88529265D02*
X137094999Y-96654999D01*
X137415001Y-88209263D02*
X137094999Y-88529265D01*
X137415001Y-87784999D02*
X137415001Y-88209263D01*
X137094999Y-96654999D02*
X137260000Y-96820000D01*
X137260000Y-114440000D02*
X135745000Y-115955000D01*
X143505000Y-134965000D02*
X143505000Y-143515000D01*
X142890000Y-134350000D02*
X143505000Y-134965000D01*
X93810000Y-132545002D02*
X93810000Y-132955000D01*
X85915000Y-121110000D02*
X85915000Y-124650002D01*
X85915000Y-124650002D02*
X93810000Y-132545002D01*
X83979990Y-119174990D02*
X85915000Y-121110000D01*
X83979990Y-116909990D02*
X83979990Y-119174990D01*
X83979990Y-114816400D02*
X83979990Y-116909990D01*
X83979990Y-114494990D02*
X83979990Y-114816400D01*
X84225000Y-106590000D02*
X84225000Y-106628590D01*
X83774990Y-107078600D02*
X83774990Y-114289990D01*
X84225000Y-106628590D02*
X83774990Y-107078600D01*
X83774990Y-114289990D02*
X83979990Y-114494990D01*
X84225000Y-104565000D02*
X84225000Y-106590000D01*
X127430000Y-89104264D02*
X127430000Y-117120000D01*
X126970000Y-88220000D02*
X126970000Y-88644264D01*
X126970000Y-88644264D02*
X127430000Y-89104264D01*
X85475000Y-88085002D02*
X85475000Y-88043898D01*
X85475000Y-88043898D02*
X85542008Y-87976890D01*
X84990001Y-88570001D02*
X85475000Y-88085002D01*
X85010000Y-90660000D02*
X84990001Y-90640001D01*
X84990001Y-90640001D02*
X84990001Y-88570001D01*
X85010000Y-100435000D02*
X85010000Y-90660000D01*
X144550000Y-139935000D02*
X144712600Y-139935000D01*
X144220000Y-139935000D02*
X144550000Y-139935000D01*
X144550000Y-139935000D02*
X145970000Y-141355000D01*
X145970000Y-141355000D02*
X148150000Y-141355000D01*
X144220000Y-133080000D02*
X144220000Y-139935000D01*
X140104999Y-128964999D02*
X144220000Y-133080000D01*
X139805000Y-114905000D02*
X140104999Y-115204999D01*
X140104999Y-115204999D02*
X140104999Y-128964999D01*
X134060009Y-109460009D02*
X134235009Y-109620000D01*
X134220000Y-109620000D02*
X134235009Y-109620000D01*
X134400000Y-92465000D02*
X134060009Y-92804991D01*
X134060009Y-92804991D02*
X134060009Y-109460009D01*
X82964990Y-91115000D02*
X82964990Y-96192610D01*
X82964990Y-96192610D02*
X81017900Y-98139700D01*
X124460000Y-91775000D02*
X124460000Y-89715011D01*
X124460000Y-89705000D02*
X124460000Y-89715011D01*
X125580000Y-92895000D02*
X124460000Y-91775000D01*
X125580000Y-103350002D02*
X125580000Y-92895000D01*
X126745000Y-111790000D02*
X126745000Y-104515002D01*
X126745000Y-104515002D02*
X125580000Y-103350002D01*
X134090000Y-119380000D02*
X134090000Y-113920000D01*
X135745000Y-121035000D02*
X134090000Y-119380000D01*
X141890000Y-134674284D02*
X141890000Y-139895000D01*
X141645000Y-134005020D02*
X141645000Y-134429284D01*
X141645000Y-134429284D02*
X141890000Y-134674284D01*
X87670000Y-127760000D02*
X93015000Y-133105000D01*
X85464990Y-125334990D02*
X87670000Y-127540000D01*
X87670000Y-127540000D02*
X87670000Y-127760000D01*
X85464990Y-121314990D02*
X85464990Y-125334990D01*
X83529980Y-114714980D02*
X83529980Y-119379980D01*
X83529980Y-119379980D02*
X85464990Y-121314990D01*
X83324980Y-113800000D02*
X83324980Y-114509980D01*
X83324980Y-114509980D02*
X83529980Y-114714980D01*
X83324980Y-111528896D02*
X83324980Y-113800000D01*
X82274999Y-110434999D02*
X82274999Y-110478915D01*
X82274999Y-110478915D02*
X83324980Y-111528896D01*
X82425000Y-109605000D02*
X82274999Y-109755001D01*
X82274999Y-109755001D02*
X82274999Y-110434999D01*
X82425000Y-107345000D02*
X82425000Y-109605000D01*
X82245000Y-107025000D02*
X82245000Y-107165000D01*
X82245000Y-107165000D02*
X82425000Y-107345000D01*
X79829299Y-106654299D02*
X80005000Y-106830000D01*
X79829299Y-102649171D02*
X79829299Y-106654299D01*
X79829299Y-100204299D02*
X79829299Y-102649171D01*
X79341499Y-99091499D02*
X79829299Y-99579299D01*
X79829299Y-99579299D02*
X79829299Y-100204299D01*
X78477900Y-98139700D02*
X79341499Y-99003299D01*
X79341499Y-99003299D02*
X79341499Y-99091499D01*
X133110000Y-127465000D02*
X134995000Y-129350000D01*
X133110000Y-110176000D02*
X133110000Y-127465000D01*
X131612160Y-108678160D02*
X133110000Y-110176000D01*
X131765000Y-130045000D02*
X131765000Y-130815000D01*
X130094999Y-128374999D02*
X131765000Y-130045000D01*
X129935759Y-109695759D02*
X130423559Y-110183559D01*
X130423559Y-110183559D02*
X130423559Y-123399999D01*
X130423559Y-123399999D02*
X130094999Y-123728559D01*
X130094999Y-123728559D02*
X130094999Y-128374999D01*
X129072160Y-108678160D02*
X129935759Y-109541759D01*
X129935759Y-109541759D02*
X129935759Y-109695759D01*
X137720000Y-96335000D02*
X137720000Y-120730000D01*
X137720000Y-120730000D02*
X137545000Y-120905000D01*
X138640000Y-93920000D02*
X138640000Y-118000000D01*
X138925000Y-91450000D02*
X139409980Y-91934980D01*
X139409980Y-91934980D02*
X139409980Y-111999980D01*
X139409980Y-111999980D02*
X142565001Y-115155001D01*
X142565001Y-115155001D02*
X143365000Y-115955000D01*
X139859990Y-89145000D02*
X139859990Y-109909990D01*
X139859990Y-109909990D02*
X143365000Y-113415000D01*
X140485000Y-86265000D02*
X140485000Y-107995000D01*
X140485000Y-107995000D02*
X143365000Y-110875000D01*
M02*
